<?xml version="1.0" encoding="UTF-8"?>
<svg xmlns="http://www.w3.org/2000/svg" xmlns:xlink="http://www.w3.org/1999/xlink" width="250.3578pt" height="207.361pt" viewBox="0 0 250.3578 207.361">
<defs>
<clipPath id="clip-0">
<path clip-rule="nonzero" d="M 174 21 L 249.652344 21 L 249.652344 55 L 174 55 Z M 174 21 "/>
</clipPath>
<clipPath id="clip-1">
<path clip-rule="nonzero" d="M 0.0625 183 L 11 183 L 11 201 L 0.0625 201 Z M 0.0625 183 "/>
</clipPath>
<clipPath id="clip-2">
<path clip-rule="nonzero" d="M 0.0625 119 L 212 119 L 212 201 L 0.0625 201 Z M 0.0625 119 "/>
</clipPath>
<clipPath id="clip-3">
<path clip-rule="nonzero" d="M 169 0 L 249.652344 0 L 249.652344 80 L 169 80 Z M 169 0 "/>
</clipPath>
</defs>
<rect data-dvn-svg-panel="true" x="0" y="0" width="100%" height="100%" fill="#ffffff"/>

<path fill="none" stroke-width="2.9999" stroke-linecap="butt" stroke-linejoin="miter" stroke="rgb(38.822937%, 36.077881%, 60.784912%)" stroke-opacity="1" stroke-miterlimit="10.000001" d="M 636.291604 547.414472 L 719.694659 569.765696 " transform="matrix(0.294831, 0, 0, -0.294831, 1.061378, 205.727035)"/>
<path fill-rule="nonzero" fill="rgb(38.822937%, 36.077881%, 60.784912%)" fill-opacity="1" d="M 182.628906 45.949219 L 192.0625 47.144531 L 189.113281 44.210938 L 190.199219 40.195312 Z M 182.628906 45.949219 "/>
<g clip-path="url(#clip-0)">
<path fill="none" stroke-width="2.0001" stroke-linecap="butt" stroke-linejoin="miter" stroke="rgb(38.822937%, 36.077881%, 60.784912%)" stroke-opacity="1" stroke-dasharray="7.2 7.2" stroke-miterlimit="10.000001" d="M 822.520887 597.310565 L 616.881679 542.207578 " transform="matrix(0.294831, 0, 0, -0.294831, 1.061378, 205.727035)"/>
</g>
<path fill="none" stroke-width="0.25" stroke-linecap="round" stroke-linejoin="round" stroke="rgb(38.822937%, 36.077881%, 60.784912%)" stroke-opacity="1" stroke-dasharray="7.2 7.2" stroke-miterlimit="10.000001" d="M 822.520887 597.310565 L 616.881679 542.207578 " transform="matrix(0.294831, 0, 0, -0.294831, 1.061378, 205.727035)"/>
<path fill="none" stroke-width="2.0001" stroke-linecap="butt" stroke-linejoin="miter" stroke="rgb(0%, 0%, 0%)" stroke-opacity="1" stroke-miterlimit="10.000001" d="M 39.75109 324.27321 L 39.75109 57.542424 L 312.602958 57.542424 " transform="matrix(0.294831, 0, 0, -0.294831, 1.061378, 205.727035)"/>
<path fill-rule="nonzero" fill="rgb(0%, 0%, 0%)" fill-opacity="1" d="M 12.78125 105.957031 L 10.382812 111.820312 L 12.78125 110.429688 L 15.179688 111.820312 Z M 12.78125 105.957031 "/>
<path fill-rule="nonzero" fill="rgb(0%, 0%, 0%)" fill-opacity="1" d="M 97.394531 188.761719 L 91.527344 191.15625 L 92.917969 188.761719 L 91.527344 186.363281 Z M 97.394531 188.761719 "/>
<path fill="none" stroke-width="2.0001" stroke-linecap="butt" stroke-linejoin="miter" stroke="rgb(0%, 0%, 0%)" stroke-opacity="1" stroke-miterlimit="10.000001" d="M 284.528125 181.871934 L 39.75109 57.542424 " transform="matrix(0.294831, 0, 0, -0.294831, 1.061378, 205.727035)"/>
<path fill-rule="nonzero" fill="rgb(0%, 0%, 0%)" fill-opacity="1" d="M 88.660156 150.21875 L 82.34375 150.738281 L 84.671875 152.246094 L 84.515625 155.011719 Z M 88.660156 150.21875 "/>
<path fill="none" stroke-width="2.0001" stroke-linecap="butt" stroke-linejoin="miter" stroke="rgb(0%, 0%, 0%)" stroke-opacity="1" stroke-miterlimit="10.000001" d="M 539.745447 484.282533 L 539.745447 217.551747 L 812.610564 217.551747 " transform="matrix(0.294831, 0, 0, -0.294831, 1.061378, 205.727035)"/>
<path fill-rule="nonzero" fill="rgb(0%, 0%, 0%)" fill-opacity="1" d="M 160.199219 58.78125 L 157.800781 64.648438 L 160.199219 63.257812 L 162.597656 64.648438 Z M 160.199219 58.78125 "/>
<path fill-rule="nonzero" fill="rgb(0%, 0%, 0%)" fill-opacity="1" d="M 244.8125 141.585938 L 238.945312 143.984375 L 240.335938 141.585938 L 238.945312 139.191406 Z M 244.8125 141.585938 "/>
<path fill="none" stroke-width="2.0001" stroke-linecap="butt" stroke-linejoin="miter" stroke="rgb(0%, 0%, 0%)" stroke-opacity="1" stroke-miterlimit="10.000001" d="M 784.522482 341.881257 L 539.745447 217.551747 " transform="matrix(0.294831, 0, 0, -0.294831, 1.061378, 205.727035)"/>
<path fill-rule="nonzero" fill="rgb(0%, 0%, 0%)" fill-opacity="1" d="M 236.078125 103.042969 L 229.761719 103.5625 L 232.089844 105.070312 L 231.933594 107.839844 Z M 236.078125 103.042969 "/>
<g clip-path="url(#clip-1)">
<path fill="none" stroke-width="2.0001" stroke-linecap="butt" stroke-linejoin="miter" stroke="rgb(0%, 0%, 0%)" stroke-opacity="1" stroke-miterlimit="10.000001" d="M 0.308534 44.651054 L 3.157089 45.565242 " transform="matrix(0.294831, 0, 0, -0.294831, 1.061378, 205.727035)"/>
</g>
<g clip-path="url(#clip-2)">
<path fill="none" stroke-width="2.0001" stroke-linecap="butt" stroke-linejoin="miter" stroke="rgb(0%, 0%, 0%)" stroke-opacity="1" stroke-dasharray="7.2 7.2" stroke-miterlimit="10.000001" d="M 8.907196 47.420115 L 684.24008 264.056072 " transform="matrix(0.294831, 0, 0, -0.294831, 1.061378, 205.727035)"/>
</g>
<path fill="none" stroke-width="2.0001" stroke-linecap="butt" stroke-linejoin="miter" stroke="rgb(0%, 0%, 0%)" stroke-opacity="1" stroke-miterlimit="10.000001" d="M 687.101884 264.970259 L 689.963689 265.884447 " transform="matrix(0.294831, 0, 0, -0.294831, 1.061378, 205.727035)"/>
<path fill="none" stroke-width="2.0001" stroke-linecap="round" stroke-linejoin="miter" stroke="rgb(94.509888%, 53.334045%, 27.058411%)" stroke-opacity="1" stroke-miterlimit="10.000001" d="M 203.668897 316.548987 L 203.668897 455.108025 " transform="matrix(0.294831, 0, 0, -0.294831, 1.061378, 205.727035)"/>
<path fill-rule="nonzero" fill="rgb(94.509888%, 53.334045%, 27.058411%)" fill-opacity="1" d="M 61.109375 114.480469 L 62.308594 111.546875 L 61.109375 112.242188 L 59.910156 111.546875 Z M 61.109375 114.480469 "/>
<path fill-rule="nonzero" fill="rgb(94.509888%, 53.334045%, 27.058411%)" fill-opacity="1" d="M 61.109375 69.464844 L 62.308594 72.398438 L 61.109375 71.703125 L 59.910156 72.398438 Z M 61.109375 69.464844 "/>
<path fill="none" stroke-width="2.0001" stroke-linecap="round" stroke-linejoin="miter" stroke="rgb(94.509888%, 53.334045%, 27.058411%)" stroke-opacity="1" stroke-miterlimit="10.000001" d="M 238.302032 325.823354 L 169.022513 445.82041 " transform="matrix(0.294831, 0, 0, -0.294831, 1.061378, 205.727035)"/>
<path fill-rule="nonzero" fill="rgb(94.509888%, 53.334045%, 27.058411%)" fill-opacity="1" d="M 72.363281 111.464844 L 71.933594 108.324219 L 71.246094 109.527344 L 69.859375 109.523438 Z M 72.363281 111.464844 "/>
<path fill-rule="nonzero" fill="rgb(94.509888%, 53.334045%, 27.058411%)" fill-opacity="1" d="M 49.855469 72.480469 L 52.359375 74.421875 L 50.972656 74.417969 L 50.285156 75.621094 Z M 49.855469 72.480469 "/>
<path fill="none" stroke-width="2.0001" stroke-linecap="round" stroke-linejoin="miter" stroke="rgb(94.509888%, 53.334045%, 27.058411%)" stroke-opacity="1" stroke-miterlimit="10.000001" d="M 263.6608 351.182122 L 143.663744 420.461641 " transform="matrix(0.294831, 0, 0, -0.294831, 1.061378, 205.727035)"/>
<path fill-rule="nonzero" fill="rgb(94.509888%, 53.334045%, 27.058411%)" fill-opacity="1" d="M 80.601562 103.226562 L 78.660156 100.722656 L 78.664062 102.109375 L 77.460938 102.796875 Z M 80.601562 103.226562 "/>
<path fill-rule="nonzero" fill="rgb(94.509888%, 53.334045%, 27.058411%)" fill-opacity="1" d="M 41.617188 80.71875 L 44.757812 81.148438 L 43.554688 81.835938 L 43.558594 83.222656 Z M 41.617188 80.71875 "/>
<path fill="none" stroke-width="2.0001" stroke-linecap="round" stroke-linejoin="miter" stroke="rgb(94.509888%, 53.334045%, 27.058411%)" stroke-opacity="1" stroke-miterlimit="10.000001" d="M 272.948416 385.828506 L 134.389378 385.828506 " transform="matrix(0.294831, 0, 0, -0.294831, 1.061378, 205.727035)"/>
<path fill-rule="nonzero" fill="rgb(94.509888%, 53.334045%, 27.058411%)" fill-opacity="1" d="M 83.617188 91.972656 L 80.683594 90.773438 L 81.378906 91.972656 L 80.683594 93.171875 Z M 83.617188 91.972656 "/>
<path fill-rule="nonzero" fill="rgb(94.509888%, 53.334045%, 27.058411%)" fill-opacity="1" d="M 38.601562 91.972656 L 41.535156 90.773438 L 40.839844 91.972656 L 41.535156 93.171875 Z M 38.601562 91.972656 "/>
<path fill="none" stroke-width="2.0001" stroke-linecap="round" stroke-linejoin="miter" stroke="rgb(94.509888%, 53.334045%, 27.058411%)" stroke-opacity="1" stroke-miterlimit="10.000001" d="M 263.6608 420.461641 L 143.663744 351.182122 " transform="matrix(0.294831, 0, 0, -0.294831, 1.061378, 205.727035)"/>
<path fill-rule="nonzero" fill="rgb(94.509888%, 53.334045%, 27.058411%)" fill-opacity="1" d="M 80.601562 80.71875 L 77.460938 81.148438 L 78.664062 81.835938 L 78.660156 83.222656 Z M 80.601562 80.71875 "/>
<path fill-rule="nonzero" fill="rgb(94.509888%, 53.334045%, 27.058411%)" fill-opacity="1" d="M 41.617188 103.226562 L 43.558594 100.722656 L 43.554688 102.109375 L 44.757812 102.796875 Z M 41.617188 103.226562 "/>
<path fill="none" stroke-width="2.0001" stroke-linecap="round" stroke-linejoin="miter" stroke="rgb(94.509888%, 53.334045%, 27.058411%)" stroke-opacity="1" stroke-miterlimit="10.000001" d="M 238.302032 445.82041 L 169.022513 325.823354 " transform="matrix(0.294831, 0, 0, -0.294831, 1.061378, 205.727035)"/>
<path fill-rule="nonzero" fill="rgb(94.509888%, 53.334045%, 27.058411%)" fill-opacity="1" d="M 72.363281 72.480469 L 69.859375 74.421875 L 71.246094 74.417969 L 71.933594 75.621094 Z M 72.363281 72.480469 "/>
<path fill-rule="nonzero" fill="rgb(94.509888%, 53.334045%, 27.058411%)" fill-opacity="1" d="M 49.855469 111.464844 L 50.285156 108.324219 L 50.972656 109.527344 L 52.359375 109.523438 Z M 49.855469 111.464844 "/>
<path fill-rule="nonzero" fill="rgb(86.66687%, 30.979919%, 38.038635%)" fill-opacity="1" d="M 64.632812 91.996094 C 64.632812 93.96875 63.035156 95.566406 61.066406 95.566406 C 59.09375 95.566406 57.496094 93.96875 57.496094 91.996094 C 57.496094 90.027344 59.09375 88.429688 61.066406 88.429688 C 63.035156 88.429688 64.632812 90.027344 64.632812 91.996094 "/>
<path fill-rule="nonzero" fill="rgb(86.66687%, 30.979919%, 38.038635%)" fill-opacity="1" d="M 39.574219 155.976562 C 39.574219 157.949219 37.976562 159.546875 36.003906 159.546875 C 34.03125 159.546875 32.433594 157.949219 32.433594 155.976562 C 32.433594 154.003906 34.03125 152.40625 36.003906 152.40625 C 37.976562 152.40625 39.574219 154.003906 39.574219 155.976562 "/>
<path fill="none" stroke-width="2.0001" stroke-linecap="butt" stroke-linejoin="miter" stroke="rgb(39.607239%, 36.470032%, 36.077881%)" stroke-opacity="1" stroke-miterlimit="10.000001" d="M 278.115563 293.787041 L 129.129487 293.787041 C 119.934615 293.787041 112.475374 301.246282 112.475374 310.441154 L 112.475374 488.522244 C 112.475374 497.730365 119.934615 505.189605 129.129487 505.189605 L 278.115563 505.189605 C 287.310435 505.189605 294.769676 497.730365 294.769676 488.522244 L 294.769676 310.441154 C 294.769676 301.246282 287.310435 293.787041 278.115563 293.787041 Z M 278.115563 293.787041 " transform="matrix(0.294831, 0, 0, -0.294831, 1.061378, 205.727035)"/>
<path fill="none" stroke-width="2.0001" stroke-linecap="butt" stroke-linejoin="round" stroke="rgb(39.607239%, 36.470032%, 36.077881%)" stroke-opacity="1" stroke-miterlimit="10.000001" d="M 137.555911 293.787041 L 86.732382 242.460046 L 210.054961 293.787041 Z M 137.555911 293.787041 " transform="matrix(0.294831, 0, 0, -0.294831, 1.061378, 205.727035)"/>
<g clip-path="url(#clip-3)">
<path fill="none" stroke-width="2.0001" stroke-linecap="butt" stroke-linejoin="miter" stroke="rgb(39.607239%, 36.470032%, 36.077881%)" stroke-opacity="1" stroke-miterlimit="10.000001" d="M 822.110165 455.783729 L 617.822365 455.783729 C 608.627493 455.783729 601.168252 463.24297 601.168252 472.437842 L 601.168252 676.725642 C 601.168252 685.933763 608.627493 693.393004 617.822365 693.393004 L 822.110165 693.393004 C 831.318286 693.393004 838.777527 685.933763 838.777527 676.725642 L 838.777527 472.437842 C 838.777527 463.24297 831.318286 455.783729 822.110165 455.783729 Z M 822.110165 455.783729 " transform="matrix(0.294831, 0, 0, -0.294831, 1.061378, 205.727035)"/>
</g>
<path fill="none" stroke-width="2.0001" stroke-linecap="butt" stroke-linejoin="miter" stroke="rgb(39.607239%, 36.470032%, 36.077881%)" stroke-opacity="1" stroke-miterlimit="10.000001" d="M 657.556402 455.783729 L 606.732872 404.456734 L 730.055451 455.783729 Z M 657.556402 455.783729 " transform="matrix(0.294831, 0, 0, -0.294831, 1.061378, 205.727035)"/>
<path fill="none" stroke-width="2.0001" stroke-linecap="round" stroke-linejoin="miter" stroke="rgb(38.822937%, 36.077881%, 60.784912%)" stroke-opacity="1" stroke-miterlimit="10.000001" d="M 762.409742 608.466303 C 766.225481 601.232297 769.524506 592.872118 771.962339 583.769989 C 780.719991 551.071222 775.155371 521.181263 759.521439 516.994549 C 743.900756 512.807835 724.119856 535.914257 715.362204 568.599775 C 706.604553 601.285293 712.182422 631.188501 727.803105 635.375215 C 736.150035 637.601063 745.676134 632.062942 754.076061 621.437167 " transform="matrix(0.294831, 0, 0, -0.294831, 1.061378, 205.727035)"/>
<path fill-rule="nonzero" fill="rgb(38.822937%, 36.077881%, 60.784912%)" fill-opacity="1" d="M 224.808594 24.527344 L 225.21875 27.671875 L 225.914062 26.472656 L 227.300781 26.484375 Z M 224.808594 24.527344 "/>
<path fill="none" stroke-width="2.0001" stroke-linecap="round" stroke-linejoin="miter" stroke="rgb(38.822937%, 36.077881%, 60.784912%)" stroke-opacity="1" stroke-miterlimit="10.000001" d="M 780.031038 602.159734 C 782.20389 597.721287 784.072012 592.752876 785.502915 587.386992 C 791.451759 565.181509 787.675766 544.857397 777.049992 542.008841 C 766.424218 539.160286 752.989635 554.873713 747.040791 577.079196 C 741.078698 599.297929 744.86794 619.622041 755.493714 622.470597 C 761.164327 623.980993 767.629885 620.21825 773.340245 612.997494 " transform="matrix(0.294831, 0, 0, -0.294831, 1.061378, 205.727035)"/>
<path fill-rule="nonzero" fill="rgb(38.822937%, 36.077881%, 60.784912%)" fill-opacity="1" d="M 230.035156 26.367188 L 230.367188 29.519531 L 231.09375 28.339844 L 232.480469 28.386719 Z M 230.035156 26.367188 "/>
<path fill="none" stroke-width="2.0001" stroke-linecap="round" stroke-linejoin="miter" stroke="rgb(38.822937%, 36.077881%, 60.784912%)" stroke-opacity="1" stroke-miterlimit="10.000001" d="M 798.500277 596.860095 C 799.18923 595.124464 799.811938 593.28284 800.328652 591.361721 C 803.680673 578.841326 801.547569 567.394108 795.558978 565.790967 C 789.583636 564.187827 782.005154 573.038222 778.653133 585.558617 C 775.301111 598.079012 777.434216 609.526231 783.422807 611.129371 C 786.615839 611.977313 790.25934 609.857458 793.47887 605.789986 " transform="matrix(0.294831, 0, 0, -0.294831, 1.061378, 205.727035)"/>
<path fill-rule="nonzero" fill="rgb(38.822937%, 36.077881%, 60.784912%)" fill-opacity="1" d="M 235.550781 27.894531 L 235.757812 31.054688 L 236.53125 29.90625 L 237.910156 30.003906 Z M 235.550781 27.894531 "/>
<path fill="none" stroke-width="2.0001" stroke-linecap="round" stroke-linejoin="round" stroke="rgb(94.509888%, 53.334045%, 27.058411%)" stroke-opacity="1" stroke-miterlimit="4" d="M 762.343496 581.186416 L 680.649575 559.29891 " transform="matrix(0.294831, 0, 0, -0.294831, 1.061378, 205.727035)"/>
<path fill-rule="nonzero" fill="rgb(94.509888%, 53.334045%, 27.058411%)" fill-opacity="1" d="M 227.839844 33.832031 L 224.695312 33.433594 L 225.679688 34.414062 L 225.316406 35.75 Z M 227.839844 33.832031 "/>
<path fill-rule="nonzero" fill="rgb(94.509888%, 53.334045%, 27.058411%)" fill-opacity="1" d="M 199.730469 41.367188 L 202.253906 39.449219 L 201.890625 40.785156 L 202.875 41.761719 Z M 199.730469 41.367188 "/>
<path fill="none" stroke-width="2.0001" stroke-linecap="round" stroke-linejoin="round" stroke="rgb(94.509888%, 53.334045%, 27.058411%)" stroke-opacity="1" stroke-miterlimit="4" d="M 745.808625 627.915975 L 697.197695 512.569351 " transform="matrix(0.294831, 0, 0, -0.294831, 1.061378, 205.727035)"/>
<path fill-rule="nonzero" fill="rgb(94.509888%, 53.334045%, 27.058411%)" fill-opacity="1" d="M 221.757812 18.675781 L 219.515625 20.914062 L 220.890625 20.738281 L 221.726562 21.84375 Z M 221.757812 18.675781 "/>
<path fill-rule="nonzero" fill="rgb(94.509888%, 53.334045%, 27.058411%)" fill-opacity="1" d="M 205.808594 56.523438 L 205.84375 53.355469 L 206.679688 54.460938 L 208.054688 54.285156 Z M 205.808594 56.523438 "/>
<path fill="none" stroke-width="2.0001" stroke-linecap="round" stroke-linejoin="round" stroke="rgb(94.509888%, 53.334045%, 27.058411%)" stroke-opacity="1" stroke-miterlimit="4" d="M 720.741337 661.581926 L 722.264983 478.9034 " transform="matrix(0.294831, 0, 0, -0.294831, 1.061378, 205.727035)"/>
<path fill-rule="nonzero" fill="rgb(94.509888%, 53.334045%, 27.058411%)" fill-opacity="1" d="M 213.542969 8.589844 L 212.367188 11.53125 L 213.5625 10.824219 L 214.765625 11.511719 Z M 213.542969 8.589844 "/>
<path fill-rule="nonzero" fill="rgb(94.509888%, 53.334045%, 27.058411%)" fill-opacity="1" d="M 214.027344 66.609375 L 212.804688 63.6875 L 214.007812 64.375 L 215.199219 63.667969 Z M 214.027344 66.609375 "/>
<path fill="none" stroke-width="2.0001" stroke-linecap="round" stroke-linejoin="round" stroke="rgb(94.509888%, 53.334045%, 27.058411%)" stroke-opacity="1" stroke-miterlimit="4" d="M 694.852605 669.663874 L 748.140466 470.808203 " transform="matrix(0.294831, 0, 0, -0.294831, 1.061378, 205.727035)"/>
<path fill-rule="nonzero" fill="rgb(94.509888%, 53.334045%, 27.058411%)" fill-opacity="1" d="M 205.390625 6.273438 L 204.992188 9.417969 L 205.96875 8.4375 L 207.308594 8.796875 Z M 205.390625 6.273438 "/>
<path fill-rule="nonzero" fill="rgb(94.509888%, 53.334045%, 27.058411%)" fill-opacity="1" d="M 222.179688 68.925781 L 220.261719 66.402344 L 221.597656 66.761719 L 222.578125 65.78125 Z M 222.179688 68.925781 "/>
<path fill="none" stroke-width="2.0001" stroke-linecap="round" stroke-linejoin="round" stroke="rgb(94.509888%, 53.334045%, 27.058411%)" stroke-opacity="1" stroke-miterlimit="4" d="M 676.489359 649.723986 L 766.503712 490.761341 " transform="matrix(0.294831, 0, 0, -0.294831, 1.061378, 205.727035)"/>
<path fill-rule="nonzero" fill="rgb(94.509888%, 53.334045%, 27.058411%)" fill-opacity="1" d="M 199.488281 12.355469 L 199.890625 15.496094 L 200.589844 14.300781 L 201.976562 14.316406 Z M 199.488281 12.355469 "/>
<path fill-rule="nonzero" fill="rgb(94.509888%, 53.334045%, 27.058411%)" fill-opacity="1" d="M 228.082031 62.84375 L 225.59375 60.882812 L 226.980469 60.898438 L 227.679688 59.703125 Z M 228.082031 62.84375 "/>
<path fill="none" stroke-width="2.0001" stroke-linecap="round" stroke-linejoin="round" stroke="rgb(94.509888%, 53.334045%, 27.058411%)" stroke-opacity="1" stroke-miterlimit="4" d="M 671.613692 608.042332 L 771.392628 532.442994 " transform="matrix(0.294831, 0, 0, -0.294831, 1.061378, 205.727035)"/>
<path fill-rule="nonzero" fill="rgb(94.509888%, 53.334045%, 27.058411%)" fill-opacity="1" d="M 197.417969 25.199219 L 199.03125 27.925781 L 199.199219 26.550781 L 200.480469 26.015625 Z M 197.417969 25.199219 "/>
<path fill-rule="nonzero" fill="rgb(94.509888%, 53.334045%, 27.058411%)" fill-opacity="1" d="M 230.152344 50 L 227.089844 49.183594 L 228.371094 48.648438 L 228.539062 47.273438 Z M 230.152344 50 "/>
<path fill="none" stroke-width="2.0001" stroke-linecap="round" stroke-linejoin="miter" stroke="rgb(38.822937%, 36.077881%, 60.784912%)" stroke-opacity="1" stroke-miterlimit="10.000001" d="M 728.6113 599.403922 C 732.427039 592.169916 735.712815 583.809737 738.150648 574.707608 C 746.921549 542.02209 741.34368 512.118882 725.722997 507.932168 C 710.089065 503.745454 690.321414 526.851876 681.563762 559.537394 C 672.806111 592.222912 678.370731 622.12612 694.004663 626.312834 C 702.338344 628.551931 711.864443 623.00056 720.26437 612.374786 " transform="matrix(0.294831, 0, 0, -0.294831, 1.061378, 205.727035)"/>
<path fill-rule="nonzero" fill="rgb(38.822937%, 36.077881%, 60.784912%)" fill-opacity="1" d="M 214.839844 27.199219 L 215.25 30.339844 L 215.949219 29.144531 L 217.335938 29.15625 Z M 214.839844 27.199219 "/>
<path fill="none" stroke-width="2.0001" stroke-linecap="round" stroke-linejoin="miter" stroke="rgb(38.822937%, 36.077881%, 60.784912%)" stroke-opacity="1" stroke-miterlimit="10.000001" d="M 702.007116 581.252661 C 704.166719 576.814214 706.034841 571.845804 707.465744 566.47992 C 713.427837 544.261187 709.638595 523.950324 699.012821 521.101769 C 688.387047 518.253213 674.952464 533.953391 669.00362 556.172124 C 663.054776 578.390857 666.830769 598.714969 677.456543 601.550275 C 683.127156 603.073921 689.605963 599.311178 695.316323 592.090421 " transform="matrix(0.294831, 0, 0, -0.294831, 1.061378, 205.727035)"/>
<path fill-rule="nonzero" fill="rgb(38.822937%, 36.077881%, 60.784912%)" fill-opacity="1" d="M 207.027344 32.535156 L 207.359375 35.683594 L 208.085938 34.503906 L 209.472656 34.550781 Z M 207.027344 32.535156 "/>
<path fill="none" stroke-width="2.0001" stroke-linecap="round" stroke-linejoin="miter" stroke="rgb(38.822937%, 36.077881%, 60.784912%)" stroke-opacity="1" stroke-miterlimit="10.000001" d="M 671.467952 562.82317 C 672.156905 561.087538 672.779612 559.245914 673.283078 557.324795 C 676.648348 544.8044 674.515244 533.357182 668.526653 531.754041 C 662.538062 530.150901 654.972828 539.001296 651.620807 551.521692 C 648.255537 564.028837 650.388641 575.476056 656.377232 577.092445 C 659.570264 577.940387 663.227015 575.820532 666.433296 571.75306 " transform="matrix(0.294831, 0, 0, -0.294831, 1.061378, 205.727035)"/>
<path fill-rule="nonzero" fill="rgb(38.822937%, 36.077881%, 60.784912%)" fill-opacity="1" d="M 198.09375 37.929688 L 198.300781 41.089844 L 199.074219 39.941406 L 200.457031 40.042969 Z M 198.09375 37.929688 "/>
<path fill-rule="nonzero" fill="rgb(86.66687%, 30.979919%, 38.038635%)" fill-opacity="1" d="M 212.863281 34.152344 C 214.765625 33.640625 216.722656 34.769531 217.234375 36.675781 C 217.742188 38.578125 216.613281 40.535156 214.710938 41.046875 C 212.804688 41.558594 210.847656 40.425781 210.339844 38.523438 C 209.828125 36.617188 210.957031 34.660156 212.863281 34.152344 "/>
<path fill="none" stroke-width="4" stroke-linecap="round" stroke-linejoin="miter" stroke="rgb(20.783997%, 19.607544%, 41.960144%)" stroke-opacity="1" stroke-miterlimit="10.000001" d="M 512.849784 208.939835 L 360.445441 160.183165 " transform="matrix(0.294831, 0, 0, -0.294831, 1.061378, 205.727035)"/>
<path fill-rule="nonzero" fill="rgb(20.783997%, 19.607544%, 41.960144%)" fill-opacity="1" d="M 160.199219 141.585938 L 147.5625 140.59375 L 151.675781 144.3125 L 150.484375 149.726562 Z M 160.199219 141.585938 "/>
<path fill-rule="nonzero" fill="rgb(100%, 89.411926%, 61.177063%)" fill-opacity="1" d="M 19.78125 182.597656 C 19.730469 183.398438 19.394531 183.742188 19.699219 184.902344 C 20.019531 186.128906 20.300781 186.9375 19.101562 186.859375 C 17.902344 186.777344 17.503906 186.75 17.558594 185.953125 C 17.636719 184.753906 18.375 182.796875 18.296875 182.390625 C 18.222656 181.984375 19.78125 182.597656 19.78125 182.597656 "/>
<path fill="none" stroke-width="0.25" stroke-linecap="round" stroke-linejoin="bevel" stroke="rgb(0%, 0%, 0%)" stroke-opacity="1" stroke-miterlimit="10.000001" d="M 63.493469 78.436247 C 63.321231 75.733432 62.181808 74.567511 63.215238 70.63253 C 64.301664 66.472314 65.255598 63.729751 61.188126 63.994733 C 57.120654 64.272964 55.769246 64.365708 55.954734 67.068523 C 56.219715 71.135996 58.723795 77.773792 58.458813 79.151698 C 58.20708 80.529604 63.493469 78.436247 63.493469 78.436247 Z M 63.493469 78.436247 " transform="matrix(0.294831, 0, 0, -0.294831, 1.061378, 205.727035)"/>
<path fill-rule="nonzero" fill="rgb(39.607239%, 36.470032%, 36.077881%)" fill-opacity="1" d="M 22.863281 188.789062 C 21.757812 188.714844 17.753906 188.449219 16.972656 188.394531 C 16.195312 188.34375 17.222656 185.28125 17.5625 185.105469 C 17.902344 184.933594 17.480469 185.015625 18.25 185.890625 C 18.59375 186.285156 18.984375 185.941406 19.769531 185.253906 C 20.328125 184.765625 20.410156 185.210938 20.976562 185.84375 C 21.539062 186.480469 24.066406 187.386719 24.015625 188.125 C 23.96875 188.859375 22.863281 188.789062 22.863281 188.789062 "/>
<path fill="none" stroke-width="0.25" stroke-linecap="round" stroke-linejoin="bevel" stroke="rgb(0%, 0%, 0%)" stroke-opacity="1" stroke-miterlimit="10.000001" d="M 73.947005 57.44968 C 70.197511 57.701413 56.617188 58.602352 53.967369 58.787839 C 51.330799 58.960077 54.815311 69.347368 55.967983 69.943577 C 57.120654 70.526537 55.689752 70.248306 58.299823 67.26726 C 59.465744 65.94235 60.790653 67.108271 63.453722 69.440112 C 65.348342 71.096248 65.626573 69.585852 67.534443 67.426249 C 69.455562 65.279896 78.027726 62.206106 77.855488 59.702027 C 77.696499 57.211197 73.947005 57.44968 73.947005 57.44968 Z M 73.947005 57.44968 " transform="matrix(0.294831, 0, 0, -0.294831, 1.061378, 205.727035)"/>
<path fill-rule="nonzero" fill="rgb(100%, 89.411926%, 61.177063%)" fill-opacity="1" d="M 17.882812 143.726562 C 17.882812 143.726562 17.976562 145.726562 17.191406 147.25 C 17.0625 147.507812 19.328125 148.597656 19.839844 148.421875 C 20.347656 148.25 20.382812 148.296875 20.296875 147.800781 C 20.207031 147.308594 20.101562 146.371094 20.371094 145.574219 C 20.640625 144.78125 17.882812 143.726562 17.882812 143.726562 "/>
<path fill="none" stroke-width="0.25" stroke-linecap="round" stroke-linejoin="bevel" stroke="rgb(0%, 0%, 0%)" stroke-opacity="1" stroke-miterlimit="10.000001" d="M 57.054408 210.291243 C 57.054408 210.291243 57.372387 203.507706 54.709319 198.340559 C 54.272098 197.466119 61.956574 193.769621 63.692205 194.352582 C 65.414588 194.948791 65.533829 194.789802 65.242349 196.459188 C 64.93762 198.141823 64.579895 201.308357 65.494082 204.011172 C 66.40827 206.713987 57.054408 210.291243 57.054408 210.291243 Z M 57.054408 210.291243 " transform="matrix(0.294831, 0, 0, -0.294831, 1.061378, 205.727035)"/>
<path fill-rule="nonzero" fill="rgb(100%, 89.411926%, 61.177063%)" fill-opacity="1" d="M 21.671875 183.183594 C 20.980469 183.113281 20.132812 183.03125 20.0625 183.765625 C 19.773438 186.738281 19.746094 187.082031 20.917969 186.8125 C 22.089844 186.542969 21.757812 186.636719 21.820312 185.371094 C 21.914062 183.539062 21.5625 183.070312 21.671875 183.183594 "/>
<path fill="none" stroke-width="0.25" stroke-linecap="round" stroke-linejoin="bevel" stroke="rgb(0%, 0%, 0%)" stroke-opacity="1" stroke-miterlimit="10.000001" d="M 69.906031 76.462132 C 67.560941 76.700616 64.685887 76.978847 64.447404 74.488017 C 63.466971 64.405455 63.374227 63.239535 67.348956 64.153723 C 71.323684 65.06791 70.197511 64.749932 70.409497 69.02939 C 70.727475 75.256464 69.535056 76.846356 69.906031 76.462132 Z M 69.906031 76.462132 " transform="matrix(0.294831, 0, 0, -0.294831, 1.061378, 205.727035)"/>
<path fill-rule="nonzero" fill="rgb(99.276733%, 54.165649%, 25.956726%)" fill-opacity="1" d="M 22.175781 161.382812 C 20.667969 160.796875 17.308594 160.808594 17.050781 162.023438 C 16.445312 164.851562 18.605469 172.402344 17.757812 183.890625 C 18.664062 184.792969 20.277344 184.21875 20.277344 184.21875 C 20.277344 184.21875 22.925781 175.714844 22.175781 161.382812 "/>
<path fill="none" stroke-width="0.25" stroke-linecap="round" stroke-linejoin="bevel" stroke="rgb(0%, 0%, 0%)" stroke-opacity="1" stroke-miterlimit="10.000001" d="M 71.615164 150.405333 C 66.501013 152.379448 55.106791 152.35295 54.232351 148.232481 C 52.178741 138.626887 59.492242 113.029635 56.630437 74.064046 C 59.704228 71.003505 65.176104 72.951122 65.176104 72.951122 C 65.176104 72.951122 74.15899 101.794402 71.615164 150.405333 Z M 71.615164 150.405333 " transform="matrix(0.294831, 0, 0, -0.294831, 1.061378, 205.727035)"/>
<path fill-rule="nonzero" fill="rgb(99.276733%, 54.165649%, 25.956726%)" fill-opacity="1" d="M 22.195312 184.5625 C 20.46875 184.859375 20.316406 184.5625 19.78125 184.398438 C 19.109375 168.992188 16.6875 166.648438 16.59375 163.5625 C 16.445312 156.992188 19.566406 160.597656 20.871094 160.636719 C 23.804688 160.726562 23.035156 182.871094 22.195312 184.5625 "/>
<path fill="none" stroke-width="0.25" stroke-linecap="round" stroke-linejoin="bevel" stroke="rgb(0%, 0%, 0%)" stroke-opacity="1" stroke-miterlimit="10.000001" d="M 71.68141 71.785201 C 65.82531 70.77827 65.308595 71.785201 63.493469 72.341663 C 61.214624 124.596095 53.000185 132.545552 52.682207 143.012337 C 52.178741 165.297316 62.764769 153.068401 67.189966 152.93591 C 77.140037 152.617932 74.529965 77.52206 71.68141 71.785201 Z M 71.68141 71.785201 " transform="matrix(0.294831, 0, 0, -0.294831, 1.061378, 205.727035)"/>
<path fill-rule="nonzero" fill="rgb(100%, 89.411926%, 61.177063%)" fill-opacity="1" stroke-width="0.25" stroke-linecap="round" stroke-linejoin="round" stroke="rgb(0%, 0%, 0%)" stroke-opacity="1" stroke-miterlimit="10.000001" d="M 63.453722 203.481208 C 67.083974 201.666082 68.952096 200.897635 70.581735 201.99731 C 71.495922 202.620017 70.462493 203.216226 70.753973 203.825685 C 71.005706 204.395396 71.204442 204.792869 71.336933 205.190342 C 71.363431 205.587814 70.118016 205.7998 70.118016 205.7998 C 71.111699 205.640811 71.38993 205.614313 71.548919 205.998536 C 71.562168 207.005468 71.548919 206.833229 71.893395 207.641424 C 72.052384 208.025648 72.820832 207.535431 73.549532 208.502615 C 74.225236 209.377056 71.469424 211.390918 71.668161 212.503842 C 72.595597 217.94922 73.165308 218.876657 69.588053 222.003443 C 66.024046 225.116981 64.367909 225.792685 58.114336 222.003443 C 51.874012 218.214202 53.490402 214.173228 56.259463 208.29063 Z M 63.453722 203.481208 " transform="matrix(0.294831, 0, 0, -0.294831, 1.061378, 205.727035)"/>
<path fill-rule="nonzero" fill="rgb(0%, 34.117126%, 57.255554%)" fill-opacity="1" d="M 20.296875 147.800781 C 19.625 147.765625 18.789062 147.960938 17.324219 146.828125 C 16.179688 148.550781 15.539062 150.207031 15.953125 152.988281 C 16.914062 159.441406 16.144531 158.023438 16.589844 162.914062 C 17.746094 163.335938 21.339844 163.253906 22.308594 163.457031 C 22.078125 159.226562 21.9375 156.710938 21.871094 154.875 C 21.769531 152.125 21.09375 149 20.296875 147.800781 "/>
<path fill="none" stroke-width="0.25" stroke-linecap="round" stroke-linejoin="bevel" stroke="rgb(0%, 0%, 0%)" stroke-opacity="1" stroke-miterlimit="10.000001" d="M 65.242349 196.459188 C 62.963505 196.591679 60.128199 195.929224 55.159788 199.771462 C 51.277803 193.915361 49.104951 188.310994 50.509355 178.877638 C 53.768633 156.990133 51.158561 161.799555 52.668958 145.211687 C 56.59069 143.780785 68.766609 144.059016 72.065633 143.356814 C 71.270688 157.718833 70.806969 166.238001 70.581735 172.465076 C 70.237258 181.792439 67.945165 192.404965 65.242349 196.459188 Z M 65.242349 196.459188 " transform="matrix(0.294831, 0, 0, -0.294831, 1.061378, 205.727035)"/>
<path fill-rule="nonzero" fill="rgb(39.607239%, 36.470032%, 36.077881%)" fill-opacity="1" d="M 22.410156 141.324219 C 22.9375 139.816406 21.5625 139.421875 20.824219 139.113281 C 20.085938 138.800781 18.742188 138.324219 17.496094 139.257812 C 16.78125 139.796875 15.828125 140.996094 16.574219 142.945312 C 16.828125 143.613281 17.257812 144.378906 17.957031 144.640625 C 18.265625 143.902344 18.976562 144.027344 18.714844 143.648438 C 18.453125 143.273438 18.582031 142.996094 18.734375 142.628906 C 19 142.003906 19.320312 143.304688 19.472656 142.9375 C 19.628906 142.570312 19.988281 143.070312 20.054688 142.3125 C 20.113281 141.605469 19.816406 141.582031 20.390625 141.277344 C 20.964844 140.976562 21.792969 141.328125 22.410156 141.324219 "/>
<path fill-rule="nonzero" fill="rgb(100%, 89.411926%, 61.177063%)" fill-opacity="1" stroke-width="0.25" stroke-linecap="round" stroke-linejoin="bevel" stroke="rgb(0%, 0%, 0%)" stroke-opacity="1" stroke-miterlimit="10.000001" d="M 61.969823 213.510773 C 61.241123 215.286152 59.995708 215.816116 59.465744 214.570701 C 58.419065 212.053373 59.134516 210.277994 60.393181 209.74803 Z M 61.969823 213.510773 " transform="matrix(0.294831, 0, 0, -0.294831, 1.061378, 205.727035)"/>
<path fill="none" stroke-width="0.25" stroke-linecap="round" stroke-linejoin="bevel" stroke="rgb(0%, 0%, 0%)" stroke-opacity="1" stroke-miterlimit="10.000001" d="M 70.409497 214.067235 C 70.912962 213.961243 68.793107 214.411712 67.030977 213.722759 " transform="matrix(0.294831, 0, 0, -0.294831, 1.061378, 205.727035)"/>
<path fill-rule="nonzero" fill="rgb(39.607239%, 36.470032%, 36.077881%)" fill-opacity="1" d="M 26.128906 188.191406 C 26.128906 188.191406 23.46875 189.65625 22.0625 189.125 C 20.410156 188.496094 20.34375 189.089844 18.941406 188.558594 C 18.171875 188.265625 19.09375 185.398438 19.460938 185.246094 C 19.832031 185.089844 19.734375 184.960938 20.113281 186.125 C 20.382812 186.949219 20.824219 186.625 21.761719 185.589844 C 22.28125 185.015625 22.433594 185.597656 22.96875 186.3125 C 23.503906 187.023438 25.285156 186.96875 25.941406 187.378906 C 26.441406 187.691406 26.128906 188.191406 26.128906 188.191406 "/>
<path fill="none" stroke-width="0.25" stroke-linecap="round" stroke-linejoin="bevel" stroke="rgb(0%, 0%, 0%)" stroke-opacity="1" stroke-miterlimit="10.000001" d="M 85.023249 59.476792 C 85.023249 59.476792 76.000615 54.508381 71.23094 56.310258 C 65.626573 58.443362 65.401339 56.4295 60.631664 58.231377 C 58.034842 59.225059 61.161628 68.949895 62.407043 69.46661 C 63.665707 69.996574 63.33448 70.433794 64.619642 66.485563 C 65.533829 63.690004 67.030977 64.789679 70.21076 68.300689 C 71.97289 70.248306 72.489604 68.274191 74.304731 65.849607 C 76.119857 63.438271 82.161444 63.623759 84.387292 62.232604 C 86.083176 61.172676 85.023249 59.476792 85.023249 59.476792 Z M 85.023249 59.476792 " transform="matrix(0.294831, 0, 0, -0.294831, 1.061378, 205.727035)"/>
<path fill-rule="nonzero" fill="rgb(39.607239%, 36.470032%, 36.077881%)" fill-opacity="1" d="M 21.515625 143.199219 C 21.488281 143.304688 21.375 143.367188 21.269531 143.335938 C 21.164062 143.304688 21.101562 143.195312 21.132812 143.089844 C 21.164062 142.984375 21.273438 142.921875 21.378906 142.953125 C 21.484375 142.980469 21.546875 143.09375 21.515625 143.199219 "/>
<path fill="none" stroke-width="0.25" stroke-linecap="round" stroke-linejoin="bevel" stroke="rgb(0%, 0%, 0%)" stroke-opacity="1" stroke-miterlimit="10.000001" d="M 69.376067 212.079871 C 69.270074 211.722145 68.8991 211.51016 68.541374 211.616153 C 68.183649 211.722145 67.971663 212.09312 68.077656 212.450846 C 68.183649 212.808571 68.554623 213.020557 68.912349 212.914564 C 69.270074 212.808571 69.48206 212.437597 69.376067 212.079871 Z M 69.376067 212.079871 " transform="matrix(0.294831, 0, 0, -0.294831, 1.061378, 205.727035)"/>
<path fill-rule="nonzero" fill="rgb(100%, 89.411926%, 61.177063%)" fill-opacity="1" d="M 14.675781 158.660156 C 14.675781 159.996094 18.644531 166.078125 18.652344 166.082031 C 18.984375 165.847656 19.289062 165.542969 19.527344 164.949219 C 19.527344 164.890625 16.769531 159.664062 16.632812 158.492188 C 16.503906 157.371094 20.335938 149.285156 17.386719 149.628906 C 14.898438 149.917969 14.675781 158.660156 14.675781 158.660156 "/>
<path fill="none" stroke-width="0.25" stroke-linecap="round" stroke-linejoin="round" stroke="rgb(0%, 0%, 0%)" stroke-opacity="1" stroke-miterlimit="10.000001" d="M 46.176901 159.626703 C 46.176901 155.108761 59.637982 134.47992 59.66448 134.466671 C 60.777404 135.261617 61.824083 136.295046 62.632278 138.308909 C 62.632278 138.507645 53.278416 156.234935 52.814698 160.209663 C 52.377478 164.012153 65.37484 191.437781 55.371773 190.27186 C 46.9321 189.291427 46.176901 159.626703 46.176901 159.626703 Z M 46.176901 159.626703 " transform="matrix(0.294831, 0, 0, -0.294831, 1.061378, 205.727035)"/>
<path fill-rule="nonzero" fill="rgb(0%, 34.117126%, 57.255554%)" fill-opacity="1" d="M 14.765625 155.320312 C 14.765625 155.320312 16.488281 156.046875 17.386719 156.121094 C 18.777344 153.21875 19.398438 148.851562 17.886719 148.480469 C 16.582031 148.160156 15.203125 148.550781 14.765625 155.320312 "/>
<path fill="none" stroke-width="0.25" stroke-linecap="round" stroke-linejoin="bevel" stroke="rgb(0%, 0%, 0%)" stroke-opacity="1" stroke-miterlimit="10.000001" d="M 46.48163 170.954679 C 46.48163 170.954679 52.324481 168.490348 55.371773 168.251864 C 60.088451 178.095942 62.195057 192.90843 57.067658 194.167094 C 52.64246 195.25352 47.965529 193.928611 46.48163 170.954679 Z M 46.48163 170.954679 " transform="matrix(0.294831, 0, 0, -0.294831, 1.061378, 205.727035)"/>
<path fill="none" stroke-width="0.25" stroke-linecap="round" stroke-linejoin="bevel" stroke="rgb(0%, 0%, 0%)" stroke-opacity="1" stroke-miterlimit="10.000001" d="M 58.260076 133.472989 C 59.200762 134.241436 61.055635 134.903891 62.632278 138.308909 C 63.307981 140.442013 63.453722 143.966272 63.453722 143.966272 " transform="matrix(0.294831, 0, 0, -0.294831, 1.061378, 205.727035)"/>
<path fill-rule="nonzero" fill="rgb(100%, 89.411926%, 61.177063%)" fill-opacity="1" d="M 165.664062 109.105469 C 168.535156 109.449219 171.808594 106.730469 172.332031 106.503906 C 172.851562 106.28125 175.40625 106.898438 175.410156 106.699219 C 175.414062 106.515625 175.136719 106.390625 174.738281 106.359375 C 174.644531 106.347656 174.203125 105.976562 174.203125 105.976562 C 174.203125 105.976562 174.652344 105.816406 174.882812 105.882812 C 175.203125 105.96875 176.007812 106.714844 176.210938 106.519531 C 176.414062 106.324219 175.421875 105.230469 175.046875 105.097656 C 174.453125 104.882812 173.933594 105.082031 172.773438 105.386719 C 170.921875 105.875 166.980469 107.0625 166.226562 107.503906 C 165.25 108.074219 165.664062 109.105469 165.664062 109.105469 "/>
<path fill="none" stroke-width="0.25" stroke-linecap="round" stroke-linejoin="bevel" stroke="rgb(0%, 0%, 0%)" stroke-opacity="1" stroke-miterlimit="10.000001" d="M 558.280931 327.717974 C 568.032265 326.538805 579.135007 335.773424 580.897137 336.541872 C 582.659266 337.29707 591.324175 335.190464 591.337424 335.866168 C 591.350673 336.502125 590.409987 336.912847 589.058579 337.032088 C 588.75385 337.058587 587.243453 338.3305 587.243453 338.3305 C 587.243453 338.3305 588.767099 338.860464 589.548796 338.648478 C 590.648471 338.356998 593.364535 335.826421 594.053488 336.488876 C 594.75569 337.15133 591.39042 340.847828 590.118507 341.311546 C 588.104645 342.026997 586.342515 341.364543 582.407534 340.317864 C 576.127462 338.674976 562.745876 334.647251 560.188801 333.150103 C 556.889776 331.215736 558.280931 327.717974 558.280931 327.717974 Z M 558.280931 327.717974 " transform="matrix(0.294831, 0, 0, -0.294831, 1.061378, 205.727035)"/>
<path fill-rule="nonzero" fill="rgb(0%, 34.117126%, 57.255554%)" fill-opacity="1" d="M 166.207031 111.058594 C 165.0625 112.253906 169.21875 122.128906 168.574219 123.21875 C 166.683594 126.390625 167.347656 132.183594 166.90625 134.863281 C 166.578125 136.859375 167.976562 135.878906 168.058594 135.222656 C 168.261719 133.597656 169.53125 125.472656 169.976562 123.363281 C 170.425781 121.253906 170.253906 111.773438 170.304688 111.136719 C 170.355469 110.496094 166.207031 111.058594 166.207031 111.058594 "/>
<path fill="none" stroke-width="0.25" stroke-linecap="round" stroke-linejoin="bevel" stroke="rgb(0%, 0%, 0%)" stroke-opacity="1" stroke-miterlimit="10.000001" d="M 560.122555 321.080178 C 556.24057 317.039204 570.350857 283.545491 568.151507 279.848993 C 561.738945 269.090728 563.991291 249.44232 562.494143 240.35344 C 561.381219 233.583153 566.137645 236.895426 566.415876 239.134524 C 567.091579 244.646147 571.397535 272.204265 572.921181 279.358777 C 574.431578 286.513288 573.848618 318.655593 574.020856 320.828445 C 574.193095 323.001297 560.122555 321.080178 560.122555 321.080178 Z M 560.122555 321.080178 " transform="matrix(0.294831, 0, 0, -0.294831, 1.061378, 205.727035)"/>
<path fill-rule="nonzero" fill="rgb(39.607239%, 36.470032%, 36.077881%)" fill-opacity="1" d="M 174.632812 134.917969 C 174.632812 138.242188 171.9375 140.9375 168.613281 140.9375 C 165.289062 140.9375 162.59375 138.242188 162.59375 134.917969 C 162.59375 131.59375 165.289062 128.898438 168.613281 128.898438 C 171.9375 128.898438 174.632812 131.59375 174.632812 134.917969 "/>
<path fill="none" stroke-width="4" stroke-linecap="butt" stroke-linejoin="miter" stroke="rgb(0%, 0%, 0%)" stroke-opacity="1" stroke-miterlimit="10.000001" d="M 588.700854 240.167953 C 588.700854 228.892973 579.558978 219.751097 568.283998 219.751097 C 557.009018 219.751097 547.880391 228.892973 547.880391 240.167953 C 547.880391 251.442933 557.009018 260.584809 568.283998 260.584809 C 579.558978 260.584809 588.700854 251.442933 588.700854 240.167953 Z M 588.700854 240.167953 " transform="matrix(0.294831, 0, 0, -0.294831, 1.061378, 205.727035)"/>
<path fill-rule="nonzero" fill="rgb(100%, 89.411926%, 61.177063%)" fill-opacity="1" d="M 169.402344 92.757812 C 169.367188 93.652344 170.289062 93.820312 170.289062 94.953125 C 170.289062 97.398438 167.625 97.578125 170.472656 99.523438 C 173.007812 101.253906 170.398438 98.300781 172.320312 94.402344 C 172.960938 93.109375 169.402344 92.757812 169.402344 92.757812 "/>
<path fill="none" stroke-width="0.25" stroke-linecap="round" stroke-linejoin="bevel" stroke="rgb(0%, 0%, 0%)" stroke-opacity="1" stroke-miterlimit="10.000001" d="M 570.973564 383.165438 C 570.841073 380.118146 573.981109 379.561684 573.981109 375.719447 C 573.981109 367.425513 564.931977 366.816055 574.590567 360.218005 C 583.202479 354.335407 574.338835 364.364972 580.870639 377.587569 C 583.030241 381.97302 570.973564 383.165438 570.973564 383.165438 Z M 570.973564 383.165438 " transform="matrix(0.294831, 0, 0, -0.294831, 1.061378, 205.727035)"/>
<path fill-rule="nonzero" fill="rgb(100%, 89.411926%, 61.177063%)" fill-opacity="1" stroke-width="0.25" stroke-linecap="round" stroke-linejoin="round" stroke="rgb(0%, 0%, 0%)" stroke-opacity="1" stroke-miterlimit="10.000001" d="M 572.258727 375.838688 C 568.509233 379.945908 564.335768 385.311792 568.575478 391.114895 C 570.788077 394.148938 583.175981 394.890887 586.5545 389.180527 C 589.893272 383.549662 584.249158 382.132009 587.044717 378.144031 C 588.488868 376.090421 586.951973 375.732696 585.521071 375.37497 C 585.176595 374.328292 584.924862 373.75858 584.924862 373.75858 C 584.924862 373.75858 583.546956 373.811577 583.175981 374.103057 C 583.175981 374.103057 585.189844 373.17562 584.421396 372.937137 C 583.467461 372.645656 583.77219 372.513166 583.175981 370.552299 C 582.553274 368.49869 579.082011 369.638112 577.359628 372.499916 Z M 572.258727 375.838688 " transform="matrix(0.294831, 0, 0, -0.294831, 1.061378, 205.727035)"/>
<path fill-rule="nonzero" fill="rgb(0%, 34.117126%, 57.255554%)" fill-opacity="1" d="M 170.574219 111.644531 C 170.574219 111.644531 171.75 121.675781 171.382812 123.492188 C 170.867188 126.039062 168.191406 135.414062 168.191406 135.414062 C 168.191406 135.414062 166.945312 137.199219 166.753906 135.414062 C 166.566406 133.628906 167.484375 127.300781 169.203125 123.371094 C 168.238281 121.035156 165.847656 115.949219 165.820312 111.859375 C 165.800781 108.871094 170.574219 111.644531 170.574219 111.644531 "/>
<path fill="none" stroke-width="0.25" stroke-linecap="round" stroke-linejoin="bevel" stroke="rgb(0%, 0%, 0%)" stroke-opacity="1" stroke-miterlimit="10.000001" d="M 574.935044 319.106063 C 574.935044 319.106063 578.923022 285.082386 577.677607 278.908308 C 575.941975 270.269897 566.866345 238.485318 566.866345 238.485318 C 566.866345 238.485318 562.626634 232.430481 561.990678 238.485318 C 561.354721 244.540154 564.45501 266.003689 570.284611 279.319029 C 567.025334 287.255238 558.916888 304.50556 558.824144 318.377362 C 558.744649 328.51292 574.935044 319.106063 574.935044 319.106063 Z M 574.935044 319.106063 " transform="matrix(0.294831, 0, 0, -0.294831, 1.061378, 205.727035)"/>
<path fill-rule="nonzero" fill="rgb(86.66687%, 30.979919%, 38.038635%)" fill-opacity="1" d="M 169.476562 97.171875 C 167.730469 99.203125 167.253906 100.03125 167.257812 104.972656 C 167.261719 108.960938 165.820312 109.15625 165.191406 112.273438 C 166.398438 112.503906 169.96875 113.949219 170.949219 113.953125 C 171.074219 110.988281 171.703125 105.617188 172.398438 104.042969 C 173.320312 101.964844 172.777344 101.765625 171.601562 98.320312 C 169.988281 98.027344 169.476562 97.171875 169.476562 97.171875 "/>
<path fill="none" stroke-width="0.25" stroke-linecap="round" stroke-linejoin="bevel" stroke="rgb(0%, 0%, 0%)" stroke-opacity="1" stroke-miterlimit="10.000001" d="M 571.212048 368.19396 C 565.302952 361.291182 563.686562 358.495623 563.699811 341.735517 C 563.71306 328.194942 558.824144 327.545736 556.677791 316.972958 C 560.78501 316.191262 572.894683 311.289096 576.220206 311.275847 C 576.630928 321.331911 578.764032 339.549417 581.13562 344.888802 C 584.249158 351.937321 582.407534 352.613024 578.432805 364.298726 C 572.94768 365.292409 571.212048 368.19396 571.212048 368.19396 Z M 571.212048 368.19396 " transform="matrix(0.294831, 0, 0, -0.294831, 1.061378, 205.727035)"/>
<path fill-rule="nonzero" fill="rgb(100%, 100%, 100%)" fill-opacity="1" d="M 166.320312 134.753906 C 166.628906 133.976562 167.003906 135.574219 167.859375 135.28125 C 168.53125 135.050781 168.296875 134.28125 168.875 134.648438 C 169.140625 134.816406 168.984375 135.582031 170.207031 136.066406 C 171.144531 136.441406 172.109375 136.550781 171.664062 137.457031 C 171.4375 137.917969 169.828125 137.828125 168.464844 137.414062 C 166.949219 137.28125 165.875 137.269531 165.707031 136.921875 C 165.410156 136.316406 165.945312 135.703125 166.320312 134.753906 "/>
<path fill="none" stroke-width="0.25" stroke-linecap="round" stroke-linejoin="bevel" stroke="rgb(0%, 0%, 0%)" stroke-opacity="1" stroke-miterlimit="10.000001" d="M 560.520028 240.724415 C 561.553458 243.360985 562.83862 237.942105 565.726923 238.935787 C 568.019016 239.717484 567.22407 242.327556 569.184937 241.082141 C 570.072626 240.512429 569.555911 237.915607 573.702878 236.272719 C 576.869412 235.000806 580.141938 234.616582 578.631541 231.556041 C 577.863094 229.992648 572.417716 230.297377 567.780532 231.688532 C 562.639883 232.139001 558.996382 232.191998 558.426671 233.357918 C 557.432989 235.411528 559.234866 237.504885 560.520028 240.724415 Z M 560.520028 240.724415 " transform="matrix(0.294831, 0, 0, -0.294831, 1.061378, 205.727035)"/>
<path fill-rule="nonzero" fill="rgb(39.607239%, 36.470032%, 36.077881%)" fill-opacity="1" d="M 174.316406 91.675781 C 173.03125 91.46875 171.980469 92.398438 171.429688 93.046875 C 170.496094 94.144531 163.667969 97.917969 168.695312 90.414062 C 169.894531 88.625 172.085938 88.628906 173.730469 89.988281 C 174.660156 90.753906 174.316406 91.675781 174.316406 91.675781 "/>
<path fill-rule="nonzero" fill="rgb(39.607239%, 36.470032%, 36.077881%)" fill-opacity="1" d="M 173.199219 93.777344 C 173.132812 93.867188 173.007812 93.886719 172.917969 93.820312 C 172.828125 93.757812 172.808594 93.632812 172.875 93.542969 C 172.941406 93.453125 173.066406 93.433594 173.15625 93.496094 C 173.246094 93.5625 173.265625 93.6875 173.199219 93.777344 "/>
<path fill="none" stroke-width="0.25" stroke-linecap="round" stroke-linejoin="bevel" stroke="rgb(0%, 0%, 0%)" stroke-opacity="1" stroke-miterlimit="10.000001" d="M 583.838436 379.707424 C 583.62645 379.402695 583.202479 379.33645 582.89775 379.548435 C 582.593021 379.77367 582.526775 380.197641 582.738761 380.50237 C 582.963996 380.807099 583.387967 380.873345 583.692696 380.64811 C 583.997425 380.436124 584.063671 379.998904 583.838436 379.707424 Z M 583.838436 379.707424 " transform="matrix(0.294831, 0, 0, -0.294831, 1.061378, 205.727035)"/>
<path fill="none" stroke-width="0.25" stroke-linecap="round" stroke-linejoin="miter" stroke="rgb(0%, 0%, 0%)" stroke-opacity="1" stroke-miterlimit="10.000001" d="M 585.083851 382.079012 C 583.944429 382.079012 582.910999 382.595727 582.142552 382.079012 " transform="matrix(0.294831, 0, 0, -0.294831, 1.061378, 205.727035)"/>
<path fill-rule="nonzero" fill="rgb(100%, 89.411926%, 61.177063%)" fill-opacity="1" d="M 164.765625 108.304688 C 164.675781 109.046875 165.601562 109.46875 166.175781 108.800781 C 166.929688 107.921875 171.363281 100.03125 169.558594 99.847656 C 167.230469 99.613281 164.765625 108.304688 164.765625 108.304688 "/>
<path fill="none" stroke-width="0.25" stroke-linecap="round" stroke-linejoin="bevel" stroke="rgb(0%, 0%, 0%)" stroke-opacity="1" stroke-miterlimit="10.000001" d="M 555.246888 330.434039 C 554.942159 327.903462 558.068946 326.485809 560.016563 328.738155 C 562.573638 331.719201 577.611361 358.495623 571.503528 359.105081 C 563.593818 359.913276 555.246888 330.434039 555.246888 330.434039 Z M 555.246888 330.434039 " transform="matrix(0.294831, 0, 0, -0.294831, 1.061378, 205.727035)"/>
<path fill-rule="nonzero" fill="rgb(100%, 89.411926%, 61.177063%)" fill-opacity="1" d="M 165.070312 109.367188 C 166.753906 110.15625 171.972656 108.636719 172.535156 108.691406 C 173.5625 108.789062 174.695312 108.242188 174.941406 108.105469 C 175.183594 107.964844 175.691406 107.648438 175.863281 107.355469 C 175.347656 106.992188 174.183594 107.394531 173.007812 107.636719 C 171.253906 107.992188 165.730469 107.449219 165.035156 107.988281 C 164.269531 108.574219 165.070312 109.367188 165.070312 109.367188 "/>
<path fill="none" stroke-width="0.25" stroke-linecap="round" stroke-linejoin="bevel" stroke="rgb(0%, 0%, 0%)" stroke-opacity="1" stroke-miterlimit="10.000001" d="M 556.280318 326.830285 C 561.977429 324.153968 579.67822 329.307866 581.599339 329.122379 C 585.083851 328.791151 588.912839 330.632775 589.747532 331.109743 C 590.582225 331.58671 592.304608 332.646638 592.887568 333.653569 C 591.138687 334.885735 587.190457 333.521078 583.202479 332.699634 C 577.253636 331.480717 558.506166 333.335591 556.147827 331.507216 C 553.551004 329.506602 556.280318 326.830285 556.280318 326.830285 Z M 556.280318 326.830285 " transform="matrix(0.294831, 0, 0, -0.294831, 1.061378, 205.727035)"/>
<path fill-rule="nonzero" fill="rgb(86.66687%, 30.979919%, 38.038635%)" fill-opacity="1" d="M 168.335938 105.539062 C 168.335938 105.539062 166.570312 104.894531 165.53125 104.183594 C 166.328125 102.121094 166.921875 98.648438 169.070312 99.058594 C 171.222656 99.464844 169.597656 104.023438 168.335938 105.539062 "/>
<path fill="none" stroke-width="0.25" stroke-linecap="round" stroke-linejoin="bevel" stroke="rgb(0%, 0%, 0%)" stroke-opacity="1" stroke-miterlimit="10.000001" d="M 567.343312 339.814398 C 567.343312 339.814398 561.354721 342.000499 557.830462 344.411834 C 560.533277 351.407357 562.54714 363.172553 569.847391 361.794647 C 577.134394 360.416742 571.636019 344.955047 567.343312 339.814398 Z M 567.343312 339.814398 " transform="matrix(0.294831, 0, 0, -0.294831, 1.061378, 205.727035)"/>
<path fill-rule="nonzero" fill="rgb(39.607239%, 36.470032%, 36.077881%)" fill-opacity="1" d="M 170.59375 89.050781 C 173.28125 88.929688 173.738281 91.367188 172.46875 91.863281 C 168.472656 93.433594 173.15625 97.710938 166.476562 98.023438 C 165.925781 98.050781 167.230469 97.195312 166.328125 96.902344 C 165.5625 96.652344 165.324219 96.3125 165.191406 95.941406 C 164.976562 95.363281 165.398438 95.363281 165.398438 95.363281 C 163.960938 95.082031 162.585938 93.097656 163.847656 92.757812 C 166.988281 91.910156 166.730469 89.222656 170.59375 89.050781 "/>
<path fill-rule="nonzero" fill="rgb(100%, 89.411926%, 61.177063%)" fill-opacity="1" stroke-width="0.25" stroke-linecap="round" stroke-linejoin="bevel" stroke="rgb(0%, 0%, 0%)" stroke-opacity="1" stroke-miterlimit="10.000001" d="M 577.836596 382.171756 C 577.743852 384.980564 574.55082 382.966702 574.471326 381.310565 C 574.285838 377.812804 573.928113 376.169916 575.597499 377.335836 Z M 577.836596 382.171756 " transform="matrix(0.294831, 0, 0, -0.294831, 1.061378, 205.727035)"/>
<path fill-rule="nonzero" fill="rgb(0%, 0%, 0%)" fill-opacity="1" d="M 173.003906 91.3125 C 170.183594 90.667969 169.511719 93.328125 167.285156 94.160156 C 166.972656 94.257812 166.652344 94.308594 166.328125 94.324219 C 166.960938 94.199219 167.535156 93.921875 168.027344 93.53125 C 169.5625 92.230469 170.679688 90.40625 173.003906 91.3125 "/>
<path fill-rule="nonzero" fill="rgb(0%, 0%, 0%)" fill-opacity="1" d="M 169.21875 91.675781 C 168.789062 91.742188 168.480469 92.019531 168.1875 92.308594 C 167.308594 93.316406 166.128906 94.03125 164.761719 93.582031 C 165.59375 93.597656 166.40625 93.449219 167.074219 92.933594 C 167.402344 92.699219 167.699219 92.40625 168.035156 92.136719 C 168.359375 91.867188 168.78125 91.621094 169.21875 91.675781 "/>
<path fill-rule="nonzero" fill="rgb(0%, 0%, 0%)" fill-opacity="1" d="M 164.484375 137.191406 C 164.535156 136.855469 166.328125 137.066406 168.488281 137.382812 C 170.652344 137.703125 172.363281 138.007812 172.3125 138.34375 C 172.261719 138.679688 170.582031 138.46875 168.421875 138.148438 C 166.261719 137.832031 164.433594 137.523438 164.484375 137.191406 "/>
<path fill-rule="nonzero" fill="rgb(39.607239%, 36.470032%, 36.077881%)" fill-opacity="1" d="M 172.070312 106.863281 L 176.585938 106.863281 L 180.195312 103.253906 L 181.28125 103.253906 L 176.882812 107.648438 L 171.378906 107.648438 Z M 172.070312 106.863281 "/>
<path fill="none" stroke-width="0.5" stroke-linecap="round" stroke-linejoin="round" stroke="rgb(0%, 0%, 0%)" stroke-opacity="1" stroke-miterlimit="10.000001" d="M 580.009447 335.322955 L 595.338651 335.322955 L 607.580815 347.565119 L 611.250814 347.565119 L 596.332333 332.646638 L 577.664357 332.646638 Z M 580.009447 335.322955 " transform="matrix(0.294831, 0, 0, -0.294831, 1.061378, 205.727035)"/>
<path fill-rule="nonzero" fill="rgb(39.607239%, 36.470032%, 36.077881%)" fill-opacity="1" stroke-width="0.5" stroke-linecap="round" stroke-linejoin="round" stroke="rgb(0%, 0%, 0%)" stroke-opacity="1" stroke-miterlimit="10.000001" d="M 595.338651 335.322955 L 596.332333 332.646638 Z M 595.338651 335.322955 " transform="matrix(0.294831, 0, 0, -0.294831, 1.061378, 205.727035)"/>
<path fill-rule="nonzero" fill="rgb(93.725586%, 48.626709%, 0%)" fill-opacity="1" d="M 76.660156 65.105469 L 75.882812 65.105469 L 76.242188 63.242188 C 76.292969 63.003906 76.5 62.753906 76.730469 62.753906 L 77.546875 62.753906 C 78.265625 62.753906 78.386719 63.132812 78.464844 63.820312 C 78.585938 63.839844 78.785156 63.820312 78.882812 63.769531 C 78.914062 63.359375 79.054688 62.402344 79.054688 62.324219 C 79.054688 62.304688 79.054688 62.292969 79.023438 62.292969 C 78.855469 62.324219 78.773438 62.335938 78.542969 62.335938 L 75.722656 62.335938 C 75.722656 62.335938 74.726562 62.324219 74.25 62.3125 C 74.179688 62.375 74.136719 62.59375 74.1875 62.652344 C 74.855469 62.683594 74.996094 62.734375 74.835938 63.5625 L 74.070312 67.542969 C 73.910156 68.367188 73.738281 68.40625 73.0625 68.4375 C 72.992188 68.496094 72.941406 68.714844 72.992188 68.773438 C 73.460938 68.765625 74.476562 68.753906 74.476562 68.753906 L 76.730469 68.753906 C 77.1875 68.753906 78.046875 68.773438 78.046875 68.773438 C 78.277344 68.277344 78.445312 67.621094 78.625 67.113281 C 78.535156 67.054688 78.335938 67.035156 78.207031 67.066406 C 77.875 67.777344 77.339844 68.335938 76.609375 68.335938 L 75.644531 68.335938 C 75.433594 68.335938 75.292969 68.128906 75.34375 67.859375 L 75.78125 65.605469 L 76.5625 65.605469 C 77.21875 65.605469 77.367188 65.773438 77.308594 66.21875 C 77.359375 66.277344 77.648438 66.277344 77.71875 66.21875 C 77.777344 65.871094 77.808594 65.683594 77.875 65.34375 C 77.945312 65.007812 77.988281 64.785156 78.054688 64.488281 C 78.007812 64.429688 77.71875 64.429688 77.648438 64.488281 C 77.507812 65.035156 77.296875 65.105469 76.660156 65.105469 "/>
<path fill-rule="nonzero" fill="rgb(10.195923%, 10.195923%, 9.411621%)" fill-opacity="1" d="M 20.835938 104.621094 C 20.605469 104.882812 20.457031 104.941406 20.296875 104.941406 C 20.117188 104.941406 19.976562 104.902344 19.507812 104.800781 C 19.03125 104.722656 18.730469 104.671875 18.453125 104.671875 C 18.105469 104.671875 17.65625 105.320312 17.484375 105.90625 C 17.554688 105.976562 17.644531 105.988281 17.753906 105.988281 C 17.964844 105.527344 18.132812 105.429688 18.59375 105.429688 C 19.039062 105.429688 19.417969 105.519531 19.707031 105.519531 C 19.84375 105.519531 19.921875 105.515625 20.023438 105.5 L 17.625 108.140625 C 17.425781 108.371094 17.046875 108.839844 17.007812 108.980469 C 17.035156 109.046875 17.085938 109.097656 17.148438 109.109375 C 17.226562 109.136719 17.296875 109.15625 17.375 109.167969 C 17.59375 108.800781 17.84375 108.640625 17.945312 108.640625 C 18.113281 108.640625 18.382812 108.699219 18.703125 108.898438 C 18.949219 109.046875 19.28125 109.148438 19.558594 109.148438 C 19.988281 109.148438 20.316406 108.898438 20.785156 107.820312 C 20.726562 107.753906 20.65625 107.722656 20.535156 107.722656 C 20.15625 108.332031 19.867188 108.378906 19.589844 108.378906 C 19.085938 108.378906 19.140625 108.03125 18.222656 108.03125 C 18.917969 107.253906 20.011719 106.136719 20.574219 105.4375 C 20.824219 105.140625 21.023438 104.929688 21.125 104.773438 Z M 20.835938 104.621094 "/>
<path fill-rule="nonzero" fill="rgb(10.195923%, 10.195923%, 9.411621%)" fill-opacity="1" d="M 36.648438 144.714844 L 36.648438 146.300781 L 35.003906 146.300781 C 34.882812 146.300781 34.753906 146.488281 34.753906 146.636719 C 34.753906 146.71875 34.8125 146.796875 34.902344 146.796875 L 36.648438 146.796875 L 36.648438 148.492188 C 36.648438 148.582031 36.730469 148.640625 36.808594 148.640625 C 36.957031 148.640625 37.148438 148.511719 37.148438 148.394531 L 37.148438 146.796875 L 38.773438 146.796875 C 38.902344 146.796875 39.042969 146.570312 39.042969 146.46875 C 39.042969 146.390625 39 146.300781 38.902344 146.300781 L 37.148438 146.300781 L 37.148438 144.585938 C 37.148438 144.484375 37.058594 144.445312 36.976562 144.445312 C 36.878906 144.445312 36.648438 144.585938 36.648438 144.714844 "/>
<path fill-rule="nonzero" fill="rgb(10.195923%, 10.195923%, 9.411621%)" fill-opacity="1" d="M 43.675781 145.761719 C 43.675781 145.921875 43.488281 146.699219 43.296875 147.257812 C 43.070312 147.90625 42.191406 148.730469 41.824219 148.730469 C 41.429688 148.730469 41.285156 148.035156 41.285156 147.476562 C 41.285156 146.28125 42.050781 145.035156 43.070312 145.035156 C 43.429688 145.035156 43.675781 145.351562 43.675781 145.761719 Z M 42.582031 150.65625 C 42.511719 150.933594 42.375 151.054688 42.050781 151.105469 L 41.863281 151.136719 C 41.8125 151.140625 41.761719 151.15625 41.761719 151.214844 L 41.761719 151.402344 L 41.78125 151.421875 C 41.78125 151.421875 42.472656 151.375 42.828125 151.375 C 43.21875 151.375 43.898438 151.394531 43.898438 151.394531 L 43.917969 151.375 L 43.917969 151.175781 C 43.917969 151.125 43.898438 151.101562 43.855469 151.09375 L 43.667969 151.066406 C 43.515625 151.039062 43.261719 150.996094 43.339844 150.65625 L 44.675781 144.855469 C 44.683594 144.804688 44.695312 144.753906 44.695312 144.703125 C 44.695312 144.625 44.613281 144.605469 44.585938 144.605469 C 44.515625 144.605469 44.386719 144.636719 44.273438 144.792969 L 43.984375 145.203125 C 43.757812 144.882812 43.4375 144.675781 43.03125 144.675781 C 41.972656 144.675781 40.449219 145.871094 40.449219 147.585938 C 40.449219 148.332031 40.675781 149.152344 41.613281 149.152344 C 42.101562 149.152344 42.589844 148.910156 43.207031 148.054688 L 43.238281 148.0625 Z M 42.582031 150.65625 "/>
<path fill-rule="nonzero" fill="rgb(10.195923%, 10.195923%, 9.411621%)" fill-opacity="1" d="M 94.699219 195.238281 L 95.050781 196.222656 L 94.121094 197.589844 C 94.015625 197.746094 93.910156 197.78125 93.839844 197.78125 C 93.761719 197.78125 93.652344 197.761719 93.570312 197.722656 C 93.484375 197.679688 93.382812 197.660156 93.28125 197.660156 C 93.0625 197.660156 92.90625 197.820312 92.90625 198.039062 C 92.90625 198.300781 93.253906 198.417969 93.484375 198.417969 C 93.820312 198.417969 94.0625 198.269531 94.5 197.640625 L 95.191406 196.648438 L 95.574219 197.859375 C 95.703125 198.257812 95.804688 198.417969 96.144531 198.417969 C 96.492188 198.417969 96.933594 198.230469 97.242188 197.710938 C 97.203125 197.621094 97.109375 197.539062 97 197.523438 C 96.742188 197.851562 96.613281 197.929688 96.503906 197.929688 C 96.414062 197.929688 96.34375 197.804688 96.265625 197.5625 L 95.726562 195.957031 L 96.484375 194.839844 C 96.640625 194.609375 96.882812 194.570312 96.953125 194.570312 C 97.03125 194.570312 97.160156 194.601562 97.25 194.671875 C 97.324219 194.726562 97.480469 194.769531 97.578125 194.769531 C 97.71875 194.769531 97.898438 194.570312 97.898438 194.339844 C 97.898438 194.09375 97.628906 193.945312 97.402344 193.945312 C 96.902344 193.945312 96.574219 194.117188 96.085938 194.824219 L 95.585938 195.542969 L 95.308594 194.664062 C 95.140625 194.140625 95.027344 193.945312 94.777344 193.945312 C 94.542969 193.945312 93.8125 194.359375 93.460938 194.621094 C 93.476562 194.726562 93.511719 194.847656 93.59375 194.925781 C 93.710938 194.867188 94.039062 194.707031 94.246094 194.707031 C 94.375 194.707031 94.472656 194.738281 94.523438 194.824219 C 94.570312 194.898438 94.636719 195.066406 94.699219 195.242188 Z M 94.699219 195.238281 "/>
<path fill-rule="nonzero" fill="rgb(10.195923%, 10.195923%, 9.411621%)" fill-opacity="1" d="M 84.839844 146.515625 C 85.035156 146.191406 86.25 144.332031 86.527344 143.675781 C 86.675781 143.328125 86.796875 142.964844 86.796875 142.613281 C 86.796875 142.328125 86.660156 142.136719 86.28125 142.136719 C 85.988281 142.136719 85.816406 142.265625 85.816406 142.507812 C 85.816406 142.570312 85.839844 142.664062 85.871094 142.710938 C 86.023438 142.941406 86.082031 143.148438 86.082031 143.3125 C 86.082031 143.746094 85.675781 144.492188 85.328125 145.035156 C 85.328125 145.035156 84.816406 145.867188 84.558594 146.242188 L 84.496094 146.210938 C 84.4375 145.046875 84.367188 144.109375 84.066406 142.878906 C 83.925781 142.347656 83.796875 142.136719 83.546875 142.136719 C 83.3125 142.136719 82.582031 142.554688 82.230469 142.8125 C 82.246094 142.921875 82.28125 143.042969 82.363281 143.117188 C 82.480469 143.0625 82.808594 142.902344 83.015625 142.902344 C 83.144531 142.902344 83.242188 142.933594 83.292969 143.015625 C 83.339844 143.09375 83.394531 143.253906 83.449219 143.433594 C 83.753906 144.449219 84.054688 146.878906 83.9375 147.132812 C 83.527344 147.800781 83.109375 148.238281 82.96875 148.238281 C 82.871094 148.238281 82.679688 148.109375 82.621094 148.058594 C 82.550781 147.996094 82.351562 147.917969 82.273438 147.917969 C 82.0625 147.917969 81.8125 148.117188 81.8125 148.425781 C 81.8125 148.757812 82.253906 148.84375 82.421875 148.84375 C 82.949219 148.84375 83.742188 148.199219 84.386719 147.210938 Z M 84.839844 146.515625 "/>
<path fill-rule="nonzero" fill="rgb(10.195923%, 10.195923%, 9.411621%)" fill-opacity="1" d="M 55.21875 198.117188 C 54.609375 198.023438 54.679688 197.734375 53.613281 197.734375 C 52.609375 197.734375 51.304688 198.417969 51.054688 199.6875 C 51.027344 199.824219 51.015625 199.957031 51.015625 200.082031 C 51.015625 201.140625 51.9375 201.707031 52.773438 202.125 C 53.328125 202.402344 53.769531 202.78125 53.769531 203.5 C 53.769531 203.632812 53.753906 203.78125 53.722656 203.945312 C 53.53125 204.914062 52.941406 205.296875 52.070312 205.296875 C 51.054688 205.296875 50.453125 204.792969 50.441406 203.597656 L 50.082031 203.632812 C 50.046875 204.542969 50.023438 204.9375 49.929688 205.546875 C 50.621094 205.546875 50.921875 205.726562 51.890625 205.726562 C 53.21875 205.726562 54.488281 204.746094 54.726562 203.527344 C 54.757812 203.367188 54.773438 203.214844 54.773438 203.078125 C 54.773438 202.011719 53.949219 201.480469 53.148438 201.109375 C 52.75 200.925781 51.878906 200.429688 51.878906 199.609375 C 51.878906 199.53125 51.882812 199.449219 51.902344 199.363281 C 52.046875 198.632812 52.667969 198.140625 53.421875 198.140625 C 54.523438 198.140625 54.675781 198.847656 54.75 199.636719 L 55.121094 199.660156 C 55.121094 199.085938 55.179688 198.765625 55.214844 198.117188 Z M 55.21875 198.117188 "/>
<path fill-rule="nonzero" fill="rgb(10.195923%, 10.195923%, 9.411621%)" fill-opacity="1" d="M 202.617188 151.648438 C 202.007812 151.550781 202.082031 151.261719 201.015625 151.261719 C 200.007812 151.261719 198.707031 151.945312 198.457031 153.214844 C 198.429688 153.351562 198.417969 153.484375 198.417969 153.609375 C 198.417969 154.667969 199.339844 155.234375 200.175781 155.652344 C 200.730469 155.929688 201.167969 156.308594 201.167969 157.03125 C 201.167969 157.160156 201.15625 157.308594 201.125 157.472656 C 200.933594 158.441406 200.34375 158.824219 199.46875 158.824219 C 198.457031 158.824219 197.855469 158.320312 197.84375 157.125 L 197.484375 157.160156 C 197.449219 158.070312 197.425781 158.464844 197.328125 159.074219 C 198.023438 159.074219 198.324219 159.253906 199.292969 159.253906 C 200.621094 159.253906 201.890625 158.273438 202.128906 157.054688 C 202.15625 156.894531 202.175781 156.742188 202.175781 156.605469 C 202.175781 155.539062 201.351562 155.007812 200.550781 154.636719 C 200.152344 154.453125 199.277344 153.960938 199.277344 153.136719 C 199.277344 153.058594 199.285156 152.976562 199.304688 152.890625 C 199.445312 152.160156 200.070312 151.671875 200.824219 151.671875 C 201.921875 151.671875 202.078125 152.375 202.148438 153.164062 L 202.519531 153.1875 C 202.519531 152.617188 202.582031 152.292969 202.617188 151.648438 Z M 202.617188 151.648438 "/>
<path fill-rule="nonzero" fill="rgb(10.195923%, 10.195923%, 9.411621%)" fill-opacity="1" d="M 203.992188 154.027344 L 204.328125 153.980469 C 204.328125 153.980469 205.070312 152.003906 205.105469 151.8125 L 205.105469 151.730469 C 205.105469 151.574219 205.019531 151.417969 204.757812 151.417969 C 204.398438 151.417969 204.074219 151.753906 204.039062 152.015625 C 204.015625 152.125 203.992188 154.027344 203.992188 154.027344 "/>
<path fill-rule="nonzero" fill="rgb(10.195923%, 10.195923%, 9.411621%)" fill-opacity="1" d="M 168.234375 57.136719 C 168.007812 57.398438 167.855469 57.457031 167.699219 57.457031 C 167.519531 57.457031 167.378906 57.417969 166.910156 57.316406 C 166.429688 57.238281 166.132812 57.1875 165.851562 57.1875 C 165.503906 57.1875 165.054688 57.835938 164.886719 58.425781 C 164.957031 58.492188 165.046875 58.503906 165.15625 58.503906 C 165.363281 58.046875 165.535156 57.945312 165.992188 57.945312 C 166.441406 57.945312 166.820312 58.035156 167.109375 58.035156 C 167.246094 58.035156 167.324219 58.03125 167.421875 58.015625 L 165.027344 60.65625 C 164.828125 60.886719 164.449219 61.355469 164.40625 61.496094 C 164.4375 61.5625 164.488281 61.613281 164.546875 61.625 C 164.628906 61.652344 164.695312 61.675781 164.777344 61.683594 C 164.996094 61.316406 165.246094 61.15625 165.34375 61.15625 C 165.515625 61.15625 165.785156 61.214844 166.101562 61.414062 C 166.351562 61.5625 166.679688 61.664062 166.960938 61.664062 C 167.390625 61.664062 167.71875 61.414062 168.1875 60.339844 C 168.125 60.273438 168.058594 60.238281 167.9375 60.238281 C 167.558594 60.847656 167.269531 60.894531 166.988281 60.894531 C 166.484375 60.894531 166.539062 60.546875 165.621094 60.546875 C 166.320312 59.773438 167.414062 58.652344 167.976562 57.957031 C 168.226562 57.65625 168.425781 57.445312 168.523438 57.289062 Z M 168.234375 57.136719 "/>
<path fill-rule="nonzero" fill="rgb(10.195923%, 10.195923%, 9.411621%)" fill-opacity="1" d="M 169.75 57.308594 L 170.03125 57.265625 C 170.03125 57.265625 170.648438 55.621094 170.679688 55.464844 L 170.679688 55.394531 C 170.679688 55.265625 170.609375 55.132812 170.390625 55.132812 C 170.089844 55.132812 169.820312 55.414062 169.792969 55.632812 C 169.769531 55.722656 169.75 57.308594 169.75 57.308594 "/>
<path fill-rule="nonzero" fill="rgb(10.195923%, 10.195923%, 9.411621%)" fill-opacity="1" d="M 181.664062 52.097656 L 181.574219 52.589844 L 186.117188 52.589844 L 186.207031 52.097656 Z M 181.664062 52.097656 "/>
<path fill-rule="nonzero" fill="rgb(10.195923%, 10.195923%, 9.411621%)" fill-opacity="1" d="M 191.351562 52.46875 C 191.390625 52.320312 191.433594 52.15625 191.476562 51.96875 C 191.519531 51.785156 191.546875 51.597656 191.558594 51.417969 C 191.566406 51.234375 191.546875 51.0625 191.5 50.90625 C 191.457031 50.753906 191.363281 50.628906 191.222656 50.535156 C 191.078125 50.433594 190.921875 50.414062 190.757812 50.46875 C 190.597656 50.527344 190.464844 50.617188 190.359375 50.738281 C 190.257812 50.863281 190.199219 51 190.191406 51.15625 C 190.179688 51.3125 190.257812 51.445312 190.414062 51.550781 C 190.566406 51.652344 190.683594 51.773438 190.765625 51.914062 C 190.84375 52.058594 190.859375 52.21875 190.8125 52.398438 C 190.742188 52.675781 190.660156 52.957031 190.570312 53.230469 C 190.480469 53.507812 190.375 53.75 190.25 53.964844 C 190.128906 54.175781 189.988281 54.347656 189.832031 54.480469 C 189.675781 54.613281 189.496094 54.679688 189.296875 54.679688 C 189.007812 54.679688 188.816406 54.570312 188.730469 54.351562 C 188.664062 54.191406 188.640625 54.015625 188.664062 53.820312 C 188.6875 53.625 188.726562 53.414062 188.78125 53.195312 C 188.832031 52.988281 188.910156 52.75 189.003906 52.476562 C 189.101562 52.207031 189.199219 51.945312 189.296875 51.691406 C 189.363281 51.519531 189.386719 51.355469 189.359375 51.203125 C 189.332031 51.050781 189.269531 50.917969 189.175781 50.804688 C 189.078125 50.691406 188.953125 50.601562 188.804688 50.539062 C 188.65625 50.476562 188.492188 50.445312 188.3125 50.445312 C 188.117188 50.445312 187.9375 50.488281 187.769531 50.578125 C 187.597656 50.667969 187.445312 50.785156 187.308594 50.933594 C 187.171875 51.078125 187.0625 51.246094 186.972656 51.4375 C 186.882812 51.625 186.828125 51.816406 186.804688 52.011719 C 186.804688 52.082031 186.839844 52.125 186.90625 52.140625 L 187.226562 52.148438 C 187.285156 52.148438 187.328125 52.113281 187.355469 52.039062 C 187.394531 51.875 187.445312 51.714844 187.507812 51.566406 C 187.574219 51.417969 187.644531 51.285156 187.722656 51.171875 C 187.804688 51.058594 187.890625 50.96875 187.984375 50.902344 C 188.074219 50.835938 188.179688 50.804688 188.292969 50.804688 C 188.363281 50.804688 188.40625 50.863281 188.410156 50.988281 C 188.417969 51.109375 188.367188 51.3125 188.261719 51.589844 C 188.167969 51.84375 188.070312 52.109375 187.96875 52.386719 C 187.863281 52.667969 187.785156 52.914062 187.734375 53.125 C 187.667969 53.378906 187.640625 53.632812 187.648438 53.882812 C 187.660156 54.136719 187.742188 54.359375 187.902344 54.550781 C 188.0625 54.75 188.269531 54.882812 188.519531 54.945312 C 188.773438 55.007812 189.027344 55.039062 189.277344 55.039062 C 189.550781 55.039062 189.800781 54.960938 190.027344 54.796875 C 190.253906 54.632812 190.453125 54.425781 190.625 54.179688 C 190.796875 53.929688 190.945312 53.652344 191.0625 53.347656 C 191.183594 53.039062 191.277344 52.746094 191.351562 52.46875 "/>
<path fill-rule="nonzero" fill="rgb(10.195923%, 10.195923%, 9.411621%)" fill-opacity="1" d="M 239.144531 19.730469 C 239.203125 19.441406 239.285156 19.304688 239.902344 19.304688 C 240.273438 19.304688 240.691406 19.433594 240.691406 20.070312 C 240.691406 21.074219 240.097656 21.585938 239.324219 21.585938 L 238.785156 21.585938 Z M 238.707031 22.003906 L 239.382812 22.003906 C 240.199219 22.003906 240.558594 22.425781 240.558594 23.058594 C 240.558594 23.933594 240.148438 24.933594 238.765625 24.933594 C 238.308594 24.933594 238.191406 24.84375 238.191406 24.664062 C 238.191406 24.617188 238.203125 24.558594 238.214844 24.496094 Z M 238.644531 18.902344 C 238.265625 18.902344 237.179688 18.882812 237.179688 18.882812 C 237.109375 18.921875 237.066406 19.023438 237.066406 19.113281 C 237.066406 19.15625 237.078125 19.203125 237.109375 19.222656 C 237.523438 19.246094 237.773438 19.277344 237.773438 19.714844 C 237.773438 19.824219 237.757812 19.957031 237.726562 20.121094 L 236.949219 24.117188 C 236.789062 24.945312 236.511719 24.984375 235.980469 25.015625 C 235.914062 25.050781 235.878906 25.148438 235.878906 25.234375 C 235.878906 25.285156 235.890625 25.332031 235.921875 25.355469 C 235.921875 25.355469 237.019531 25.335938 237.398438 25.335938 C 237.777344 25.335938 238.386719 25.355469 238.964844 25.355469 C 241.035156 25.355469 241.964844 24.421875 241.964844 23.0625 C 241.964844 22.417969 241.613281 21.984375 240.816406 21.753906 L 240.824219 21.734375 C 241.492188 21.457031 242.027344 20.871094 242.027344 20.113281 C 242.027344 19.503906 241.644531 18.882812 240.011719 18.882812 C 239.535156 18.882812 238.945312 18.902344 238.644531 18.902344 Z M 238.644531 18.902344 "/>
<path fill-rule="nonzero" fill="rgb(10.195923%, 10.195923%, 9.411621%)" fill-opacity="1" d="M 243.203125 21.238281 L 243.457031 21.175781 C 243.457031 21.175781 244.175781 19.421875 244.207031 19.273438 C 244.246094 19.09375 244.257812 18.902344 243.863281 18.902344 C 243.460938 18.902344 243.191406 19.214844 243.140625 19.441406 C 243.128906 19.503906 243.070312 21.195312 243.070312 21.195312 Z M 243.203125 21.238281 "/>
<path fill-rule="nonzero" fill="rgb(93.725586%, 48.626709%, 0%)" fill-opacity="1" d="M 222.097656 8.894531 L 221.316406 8.894531 L 221.675781 7.03125 C 221.726562 6.792969 221.9375 6.542969 222.164062 6.542969 L 222.984375 6.542969 C 223.703125 6.542969 223.820312 6.921875 223.898438 7.609375 C 224.019531 7.628906 224.21875 7.609375 224.320312 7.558594 C 224.347656 7.148438 224.488281 6.191406 224.488281 6.113281 C 224.488281 6.09375 224.488281 6.082031 224.457031 6.082031 C 224.289062 6.113281 224.210938 6.125 223.980469 6.125 L 221.160156 6.125 C 221.160156 6.125 220.160156 6.113281 219.683594 6.101562 C 219.613281 6.164062 219.574219 6.382812 219.625 6.441406 C 220.292969 6.472656 220.429688 6.523438 220.273438 7.351562 L 219.503906 11.332031 C 219.34375 12.15625 219.175781 12.195312 218.496094 12.226562 C 218.425781 12.285156 218.378906 12.503906 218.425781 12.5625 C 218.894531 12.554688 219.914062 12.542969 219.914062 12.542969 L 222.164062 12.542969 C 222.625 12.542969 223.480469 12.5625 223.480469 12.5625 C 223.710938 12.066406 223.878906 11.410156 224.058594 10.902344 C 223.96875 10.84375 223.769531 10.824219 223.640625 10.855469 C 223.3125 11.566406 222.773438 12.125 222.046875 12.125 L 221.078125 12.125 C 220.871094 12.125 220.730469 11.917969 220.78125 11.648438 L 221.21875 9.394531 L 221.996094 9.394531 C 222.652344 9.394531 222.804688 9.5625 222.742188 10.007812 C 222.792969 10.066406 223.082031 10.066406 223.152344 10.007812 C 223.210938 9.660156 223.242188 9.472656 223.3125 9.132812 C 223.382812 8.796875 223.421875 8.574219 223.492188 8.277344 C 223.441406 8.21875 223.152344 8.21875 223.082031 8.277344 C 222.941406 8.824219 222.734375 8.894531 222.097656 8.894531 "/>
<path fill-rule="nonzero" fill="rgb(93.725586%, 48.626709%, 0%)" fill-opacity="1" d="M 225.367188 8.457031 L 225.621094 8.394531 C 225.621094 8.394531 226.339844 6.640625 226.371094 6.492188 C 226.410156 6.3125 226.421875 6.125 226.027344 6.125 C 225.625 6.125 225.355469 6.433594 225.304688 6.660156 C 225.292969 6.722656 225.234375 8.417969 225.234375 8.417969 Z M 225.367188 8.457031 "/>
<path fill-rule="nonzero" fill="rgb(10.195923%, 10.195923%, 9.411621%)" fill-opacity="1" d="M 243.503906 147.226562 L 243.855469 148.210938 L 242.925781 149.582031 C 242.820312 149.734375 242.714844 149.769531 242.644531 149.769531 C 242.566406 149.769531 242.457031 149.75 242.375 149.710938 C 242.285156 149.671875 242.1875 149.652344 242.085938 149.652344 C 241.867188 149.652344 241.707031 149.808594 241.707031 150.03125 C 241.707031 150.289062 242.058594 150.410156 242.285156 150.410156 C 242.625 150.410156 242.867188 150.257812 243.304688 149.632812 L 243.996094 148.640625 L 244.378906 149.851562 C 244.507812 150.25 244.609375 150.410156 244.949219 150.410156 C 245.296875 150.410156 245.738281 150.21875 246.046875 149.699219 C 246.007812 149.609375 245.914062 149.53125 245.804688 149.511719 C 245.546875 149.839844 245.417969 149.921875 245.308594 149.921875 C 245.21875 149.921875 245.148438 149.792969 245.066406 149.550781 L 244.53125 147.945312 L 245.289062 146.828125 C 245.445312 146.597656 245.6875 146.558594 245.757812 146.558594 C 245.835938 146.558594 245.964844 146.589844 246.054688 146.660156 C 246.128906 146.714844 246.285156 146.761719 246.382812 146.761719 C 246.523438 146.761719 246.703125 146.558594 246.703125 146.332031 C 246.703125 146.082031 246.433594 145.933594 246.203125 145.933594 C 245.707031 145.933594 245.378906 146.105469 244.890625 146.8125 L 244.390625 147.53125 L 244.113281 146.652344 C 243.945312 146.132812 243.832031 145.933594 243.582031 145.933594 C 243.347656 145.933594 242.617188 146.351562 242.265625 146.609375 C 242.28125 146.714844 242.316406 146.839844 242.398438 146.914062 C 242.515625 146.859375 242.84375 146.699219 243.050781 146.699219 C 243.179688 146.699219 243.277344 146.726562 243.328125 146.8125 C 243.375 146.890625 243.441406 147.058594 243.503906 147.230469 Z M 243.503906 147.226562 "/>
<path fill-rule="nonzero" fill="rgb(10.195923%, 10.195923%, 9.411621%)" fill-opacity="1" d="M 247.628906 146.050781 L 247.910156 146.011719 C 247.910156 146.011719 248.527344 144.367188 248.558594 144.207031 L 248.558594 144.136719 C 248.558594 144.007812 248.488281 143.878906 248.269531 143.878906 C 247.96875 143.878906 247.699219 144.15625 247.671875 144.378906 C 247.652344 144.46875 247.628906 146.050781 247.628906 146.050781 "/>
<path fill-rule="nonzero" fill="rgb(10.195923%, 10.195923%, 9.411621%)" fill-opacity="1" d="M 229.992188 98.785156 C 230.191406 98.460938 231.40625 96.601562 231.683594 95.945312 C 231.832031 95.597656 231.953125 95.234375 231.953125 94.882812 C 231.953125 94.597656 231.816406 94.40625 231.433594 94.40625 C 231.144531 94.40625 230.972656 94.535156 230.972656 94.777344 C 230.972656 94.839844 230.996094 94.933594 231.027344 94.984375 C 231.179688 95.210938 231.234375 95.417969 231.234375 95.582031 C 231.234375 96.019531 230.828125 96.765625 230.484375 97.304688 C 230.484375 97.304688 229.972656 98.136719 229.714844 98.511719 L 229.648438 98.480469 C 229.589844 97.320312 229.519531 96.378906 229.222656 95.148438 C 229.082031 94.617188 228.953125 94.40625 228.703125 94.40625 C 228.46875 94.40625 227.734375 94.824219 227.386719 95.082031 C 227.402344 95.191406 227.4375 95.3125 227.515625 95.386719 C 227.636719 95.332031 227.964844 95.171875 228.167969 95.171875 C 228.300781 95.171875 228.398438 95.203125 228.449219 95.285156 C 228.492188 95.363281 228.550781 95.523438 228.601562 95.707031 C 228.90625 96.71875 229.210938 99.148438 229.09375 99.402344 C 228.683594 100.070312 228.265625 100.507812 228.125 100.507812 C 228.023438 100.507812 227.835938 100.378906 227.777344 100.328125 C 227.707031 100.269531 227.507812 100.1875 227.425781 100.1875 C 227.21875 100.1875 226.96875 100.386719 226.96875 100.695312 C 226.96875 101.027344 227.40625 101.117188 227.578125 101.117188 C 228.105469 101.117188 228.898438 100.472656 229.539062 99.480469 Z M 229.992188 98.785156 "/>
<path fill-rule="nonzero" fill="rgb(10.195923%, 10.195923%, 9.411621%)" fill-opacity="1" d="M 233.03125 94.527344 L 233.308594 94.484375 C 233.308594 94.484375 233.925781 92.839844 233.957031 92.679688 L 233.957031 92.613281 C 233.957031 92.480469 233.886719 92.351562 233.667969 92.351562 C 233.367188 92.351562 233.101562 92.632812 233.070312 92.851562 C 233.050781 92.941406 233.03125 94.527344 233.03125 94.527344 "/>
<path fill-rule="nonzero" fill="rgb(10.195923%, 10.195923%, 9.411621%)" fill-opacity="1" d="M 133.808594 158.035156 C 133.847656 157.890625 133.886719 157.722656 133.929688 157.539062 C 133.972656 157.351562 134 157.167969 134.011719 156.984375 C 134.019531 156.800781 134.003906 156.632812 133.957031 156.476562 C 133.910156 156.320312 133.816406 156.195312 133.675781 156.101562 C 133.53125 156 133.375 155.980469 133.214844 156.035156 C 133.050781 156.09375 132.917969 156.183594 132.816406 156.304688 C 132.710938 156.429688 132.65625 156.570312 132.644531 156.722656 C 132.636719 156.878906 132.710938 157.011719 132.871094 157.117188 C 133.023438 157.21875 133.140625 157.339844 133.21875 157.480469 C 133.296875 157.625 133.316406 157.785156 133.269531 157.964844 C 133.195312 158.246094 133.113281 158.523438 133.023438 158.796875 C 132.933594 159.074219 132.828125 159.316406 132.707031 159.53125 C 132.582031 159.742188 132.441406 159.917969 132.285156 160.050781 C 132.128906 160.183594 131.953125 160.25 131.753906 160.25 C 131.460938 160.25 131.269531 160.140625 131.183594 159.917969 C 131.117188 159.761719 131.097656 159.582031 131.121094 159.386719 C 131.144531 159.191406 131.179688 158.984375 131.234375 158.761719 C 131.289062 158.558594 131.363281 158.316406 131.457031 158.046875 C 131.554688 157.773438 131.652344 157.511719 131.753906 157.257812 C 131.820312 157.085938 131.839844 156.921875 131.8125 156.769531 C 131.785156 156.617188 131.726562 156.484375 131.628906 156.371094 C 131.53125 156.257812 131.410156 156.167969 131.257812 156.105469 C 131.109375 156.042969 130.945312 156.011719 130.765625 156.011719 C 130.574219 156.011719 130.390625 156.058594 130.222656 156.144531 C 130.054688 156.234375 129.898438 156.355469 129.765625 156.5 C 129.628906 156.644531 129.515625 156.8125 129.425781 157.003906 C 129.335938 157.191406 129.28125 157.382812 129.261719 157.578125 C 129.261719 157.648438 129.292969 157.691406 129.359375 157.707031 L 129.679688 157.714844 C 129.738281 157.714844 129.78125 157.679688 129.808594 157.605469 C 129.847656 157.441406 129.898438 157.28125 129.964844 157.132812 C 130.027344 156.984375 130.097656 156.851562 130.179688 156.738281 C 130.257812 156.625 130.34375 156.535156 130.4375 156.46875 C 130.53125 156.402344 130.632812 156.371094 130.746094 156.371094 C 130.820312 156.371094 130.859375 156.433594 130.867188 156.554688 C 130.871094 156.679688 130.824219 156.878906 130.714844 157.160156 C 130.625 157.410156 130.523438 157.675781 130.421875 157.957031 C 130.320312 158.234375 130.242188 158.480469 130.1875 158.695312 C 130.121094 158.945312 130.09375 159.199219 130.101562 159.449219 C 130.113281 159.703125 130.199219 159.925781 130.355469 160.121094 C 130.515625 160.320312 130.722656 160.449219 130.976562 160.511719 C 131.226562 160.574219 131.480469 160.609375 131.734375 160.609375 C 132.003906 160.609375 132.253906 160.527344 132.480469 160.363281 C 132.707031 160.199219 132.90625 159.996094 133.078125 159.746094 C 133.25 159.496094 133.398438 159.21875 133.519531 158.914062 C 133.636719 158.605469 133.734375 158.316406 133.808594 158.035156 "/>
</svg>
