<svg xmlns="http://www.w3.org/2000/svg" viewBox="0 0 520 360" role="img" aria-label="Symmetric butterfly">
  <defs>
    <linearGradient id="wingA" x1="0" y1="0" x2="1" y2="1">
      <stop offset="0" stop-color="#ff6b8a"/>
      <stop offset="0.45" stop-color="#32d4d9"/>
      <stop offset="1" stop-color="#ffd45a"/>
    </linearGradient>
    <linearGradient id="wingB" x1="0" y1="1" x2="1" y2="0">
      <stop offset="0" stop-color="#2f74ff"/>
      <stop offset="0.52" stop-color="#19d38a"/>
      <stop offset="1" stop-color="#ff8a3d"/>
    </linearGradient>
    <filter id="shadow" x="-20%" y="-20%" width="140%" height="140%">
      <feDropShadow dx="0" dy="10" stdDeviation="10" flood-color="#000" flood-opacity="0.45"/>
    </filter>
  </defs>
  <rect width="520" height="360" rx="22" fill="#05080c"/>
  <g filter="url(#shadow)">
    <path d="M254 176 C186 12 54 22 30 94 C8 160 68 205 176 207 C103 240 77 304 130 329 C196 361 240 282 257 195 Z" fill="url(#wingA)" stroke="#f6f7ff" stroke-width="5"/>
    <path d="M266 176 C334 12 466 22 490 94 C512 160 452 205 344 207 C417 240 443 304 390 329 C324 361 280 282 263 195 Z" fill="url(#wingA)" stroke="#f6f7ff" stroke-width="5"/>
    <path d="M251 183 C198 78 92 69 62 119 C38 160 88 188 188 190 Z" fill="url(#wingB)" opacity="0.86"/>
    <path d="M269 183 C322 78 428 69 458 119 C482 160 432 188 332 190 Z" fill="url(#wingB)" opacity="0.86"/>
    <path d="M252 196 C169 222 128 285 151 309 C189 347 239 278 258 201 Z" fill="#26b4f6" opacity="0.72"/>
    <path d="M268 196 C351 222 392 285 369 309 C331 347 281 278 262 201 Z" fill="#26b4f6" opacity="0.72"/>
    <path d="M260 105 C245 137 244 256 260 318 C276 256 275 137 260 105 Z" fill="#20141d" stroke="#f6f7ff" stroke-width="4"/>
    <circle cx="260" cy="93" r="17" fill="#20141d" stroke="#f6f7ff" stroke-width="4"/>
    <path d="M253 82 C226 42 203 27 181 24" fill="none" stroke="#f6f7ff" stroke-width="4" stroke-linecap="round"/>
    <path d="M267 82 C294 42 317 27 339 24" fill="none" stroke="#f6f7ff" stroke-width="4" stroke-linecap="round"/>
    <g fill="#071019" stroke="#f6f7ff" stroke-width="3" opacity="0.9">
      <circle cx="126" cy="110" r="16"/><circle cx="394" cy="110" r="16"/>
      <circle cx="160" cy="260" r="18"/><circle cx="360" cy="260" r="18"/>
      <circle cx="206" cy="154" r="13"/><circle cx="314" cy="154" r="13"/>
    </g>
  </g>
</svg>
