<svg xmlns="http://www.w3.org/2000/svg" viewBox="0 0 128 128" role="img" aria-label="Cat">
  <defs>
    <linearGradient id="catFur" x1="0" y1="0" x2="1" y2="1">
      <stop offset="0%" stop-color="#ffffff"/>
      <stop offset="45%" stop-color="#a9e8ff"/>
      <stop offset="100%" stop-color="#4d8dff"/>
    </linearGradient>
    <linearGradient id="catShadow" x1="0" y1="0" x2="1" y2="1">
      <stop offset="0%" stop-color="#386fbf"/>
      <stop offset="100%" stop-color="#102345"/>
    </linearGradient>
    <filter id="catGlow" x="-40%" y="-40%" width="180%" height="180%">
      <feGaussianBlur stdDeviation="3" result="blur"/>
      <feMerge>
        <feMergeNode in="blur"/>
        <feMergeNode in="SourceGraphic"/>
      </feMerge>
    </filter>
  </defs>
  <rect width="128" height="128" fill="none"/>
  <g filter="url(#catGlow)">
    <path d="M35 48 43 22 57 43c5-2 10-2 15 0l14-21 7 26c9 8 14 20 14 33 0 26-19 40-43 40S21 107 21 81c0-13 5-25 14-33z" fill="url(#catFur)"/>
    <path d="M36 49 43 31 54 45c-7 2-13 4-18 4z" fill="#7ecbff" opacity="0.75"/>
    <path d="M92 49 85 31 74 45c7 2 13 4 18 4z" fill="#7ecbff" opacity="0.75"/>
    <ellipse cx="64" cy="84" rx="32" ry="25" fill="url(#catShadow)" opacity="0.2"/>
    <ellipse cx="49" cy="72" rx="5.5" ry="7" fill="#07101f"/>
    <ellipse cx="79" cy="72" rx="5.5" ry="7" fill="#07101f"/>
    <circle cx="51" cy="69" r="1.7" fill="#ffffff"/>
    <circle cx="81" cy="69" r="1.7" fill="#ffffff"/>
    <path d="M64 79 59 86h10z" fill="#0b1730" opacity="0.82"/>
    <path d="M64 86c-3 7-10 8-16 4M64 86c3 7 10 8 16 4" fill="none" stroke="#0b1730" stroke-width="3" stroke-linecap="round" opacity="0.68"/>
    <path d="M39 82H16M41 89H19M89 82h23M87 89h22" stroke="#ffffff" stroke-width="3" stroke-linecap="round" opacity="0.72"/>
  </g>
</svg>
